<?xml version="1.0" standalone="no"?>
<!DOCTYPE svg PUBLIC "-//W3C//DTD SVG 20010904//EN"
 "http://www.w3.org/TR/2001/REC-SVG-20010904/DTD/svg10.dtd">
<svg version="1.0" xmlns="http://www.w3.org/2000/svg"
 width="1024.000000pt" height="1024.000000pt" viewBox="0 0 1024.000000 1024.000000"
 preserveAspectRatio="xMidYMid meet">

<g transform="translate(0.000000,1024.000000) scale(0.100000,-0.100000)"
fill="#000000" stroke="none">
<path d="M0 5120 l0 -5120 5120 0 5120 0 0 5120 0 5120 -504 0 -505 0 -4 -22
-4 -23 -2 23 c-1 22 -1 22 -181 22 l-180 0 -1 -27 c-1 -16 -1 -31 0 -35 0 -5
-4 -8 -10 -8 -5 0 -9 8 -8 18 5 55 21 52 -260 52 l-260 0 -4 -27 -4 -28 -2 28
-1 27 -3469 0 c-3464 0 -3469 0 -3464 -20 3 -11 0 -20 -6 -20 -6 0 -11 9 -11
20 0 19 -9 20 -680 20 l-680 0 0 -5120z m1787 5088 c-3 -8 -6 -5 -6 6 -1 11 2
17 5 13 3 -3 4 -12 1 -19z m-777 2 c0 -5 -2 -10 -4 -10 -3 0 -8 5 -11 10 -3 6
-1 10 4 10 6 0 11 -4 11 -10z m370 -60 c0 -5 -5 -10 -11 -10 -5 0 -7 5 -4 10
3 6 8 10 11 10 2 0 4 -4 4 -10z m7482 -587 c3 -677 0 -651 76 -667 23 -5 42
-12 42 -15 0 -4 -22 -16 -49 -28 -46 -19 -49 -23 -60 -72 -7 -34 -11 -211 -11
-505 0 -391 2 -455 15 -466 18 -15 19 -42 3 -58 -17 -17 -35 -15 -57 7 -18 18
-18 19 2 40 21 21 22 27 22 404 0 446 -6 612 -23 630 -7 6 -36 19 -65 28 -55
17 -53 20 20 39 26 6 47 19 54 33 9 15 12 185 13 624 1 332 4 603 8 603 4 0 9
-269 10 -597z m-7482 557 c0 -5 -4 -10 -10 -10 -5 0 -10 5 -10 10 0 6 5 10 10
10 6 0 10 -4 10 -10z m-376 -15 c3 -8 1 -15 -4 -15 -6 0 -10 7 -10 15 0 8 2
15 4 15 2 0 6 -7 10 -15z m376 -15 c0 -5 -4 -10 -10 -10 -5 0 -10 5 -10 10 0
6 5 10 10 10 6 0 10 -4 10 -10z m0 -30 c0 -5 -2 -10 -4 -10 -3 0 -8 5 -11 10
-3 6 -1 10 4 10 6 0 11 -4 11 -10z m-3 -60 c-1 -22 -5 -40 -10 -40 -8 0 -8 56
1 73 7 15 10 6 9 -33z m410 18 c-3 -8 -6 -5 -6 6 -1 11 2 17 5 13 3 -3 4 -12
1 -19z m-777 -8 c0 -5 -4 -10 -10 -10 -5 0 -10 5 -10 10 0 6 5 10 10 10 6 0
10 -4 10 -10z m370 -70 c0 -5 -4 -10 -10 -10 -5 0 -10 5 -10 10 0 6 5 10 10
10 6 0 10 -4 10 -10z m6950 -4 c0 -3 -4 -8 -10 -11 -5 -3 -10 -1 -10 4 0 6 5
11 10 11 6 0 10 -2 10 -4z m-7320 -26 c0 -5 -4 -10 -10 -10 -5 0 -10 5 -10 10
0 6 5 10 10 10 6 0 10 -4 10 -10z m370 0 c0 -5 -5 -10 -11 -10 -5 0 -7 5 -4
10 3 6 8 10 11 10 2 0 4 -4 4 -10z m6950 -4 c0 -3 -4 -8 -10 -11 -5 -3 -10 -1
-10 4 0 6 5 11 10 11 6 0 10 -2 10 -4z m-6950 -26 c0 -5 -4 -10 -10 -10 -5 0
-10 5 -10 10 0 6 5 10 10 10 6 0 10 -4 10 -10z m-373 -15 c0 -8 -4 -15 -9 -15
-4 0 -8 7 -8 15 0 8 4 15 8 15 5 0 9 -7 9 -15z m373 -15 c0 -5 -4 -10 -10 -10
-5 0 -10 5 -10 10 0 6 5 10 10 10 6 0 10 -4 10 -10z m6942 -25 c-6 -34 -12
-32 -12 6 0 16 4 28 9 25 4 -3 6 -17 3 -31z m-7312 -5 c0 -5 -2 -10 -4 -10 -3
0 -8 5 -11 10 -3 6 -1 10 4 10 6 0 11 -4 11 -10z m370 0 c0 -5 -2 -10 -4 -10
-3 0 -8 5 -11 10 -3 6 -1 10 4 10 6 0 11 -4 11 -10z m0 -30 c0 -5 -4 -10 -10
-10 -5 0 -10 5 -10 10 0 6 5 10 10 10 6 0 10 -4 10 -10z m414 -25 c-4 -8 -8
-15 -10 -15 -2 0 -4 7 -4 15 0 8 4 15 10 15 5 0 7 -7 4 -15z m-784 1 c0 -3 -4
-8 -10 -11 -5 -3 -10 -1 -10 4 0 6 5 11 10 11 6 0 10 -2 10 -4z m370 -6 c0 -5
-4 -10 -10 -10 -5 0 -10 5 -10 10 0 6 5 10 10 10 6 0 10 -4 10 -10z m0 -30 c0
-5 -4 -10 -10 -10 -5 0 -10 5 -10 10 0 6 5 10 10 10 6 0 10 -4 10 -10z m-370
-21 c0 -5 -4 -9 -10 -9 -5 0 -10 7 -10 16 0 8 5 12 10 9 6 -3 10 -10 10 -16z
m370 -9 c0 -5 -4 -10 -10 -10 -5 0 -10 5 -10 10 0 6 5 10 10 10 6 0 10 -4 10
-10z m0 -30 c0 -5 -4 -10 -10 -10 -5 0 -10 5 -10 10 0 6 5 10 10 10 6 0 10 -4
10 -10z m0 -30 c0 -5 -4 -10 -10 -10 -5 0 -10 5 -10 10 0 6 5 10 10 10 6 0 10
-4 10 -10z m407 -12 c-3 -8 -6 -5 -6 6 -1 11 2 17 5 13 3 -3 4 -12 1 -19z
m-407 -38 c0 -16 -4 -30 -10 -30 -5 0 -8 13 -7 30 3 39 17 39 17 0z m6945 0
c3 -5 1 -10 -4 -10 -6 0 -11 5 -11 10 0 6 2 10 4 10 3 0 8 -4 11 -10z m-7320
-30 c3 -5 1 -10 -4 -10 -6 0 -11 5 -11 10 0 6 2 10 4 10 3 0 8 -4 11 -10z
m375 -20 c0 -5 -2 -10 -4 -10 -3 0 -8 5 -11 10 -3 6 -1 10 4 10 6 0 11 -4 11
-10z m6950 -10 c0 -5 -4 -10 -10 -10 -5 0 -10 5 -10 10 0 6 5 10 10 10 6 0 10
-4 10 -10z m0 -24 c0 -3 -4 -8 -10 -11 -5 -3 -10 -1 -10 4 0 6 5 11 10 11 6 0
10 -2 10 -4z m-7320 -16 c0 -5 -2 -10 -4 -10 -3 0 -8 5 -11 10 -3 6 -1 10 4
10 6 0 11 -4 11 -10z m370 0 c0 -5 -4 -10 -10 -10 -5 0 -10 5 -10 10 0 6 5 10
10 10 6 0 10 -4 10 -10z m4203 3 c-13 -2 -33 -2 -45 0 -13 2 -3 4 22 4 25 0
35 -2 23 -4z m2742 -33 c-2 -31 -15 -37 -15 -7 0 15 4 27 8 27 5 0 8 -9 7 -20z
m-7315 6 c0 -3 -4 -8 -10 -11 -5 -3 -10 -1 -10 4 0 6 5 11 10 11 6 0 10 -2 10
-4z m370 -6 c0 -5 -4 -10 -10 -10 -5 0 -10 5 -10 10 0 6 5 10 10 10 6 0 10 -4
10 -10z m2715 -33 c17 -22 24 -47 29 -103 3 -41 12 -87 21 -103 20 -40 70 -79
108 -86 18 -3 419 -4 893 -3 l861 3 36 28 c49 37 65 71 72 153 8 82 20 111 57
130 41 21 709 20 792 -1 189 -49 352 -212 401 -400 13 -52 15 -215 14 -1295
-1 -1021 -7 -1495 -17 -1424 -2 13 -53 102 -222 394 -168 290 -268 421 -404
529 -194 154 -469 199 -578 94 -26 -25 -32 -26 -151 -27 -122 -1 -124 -1 -203
-40 -178 -88 -346 -319 -428 -588 -31 -101 -97 -380 -92 -386 2 -2 6 5 9 15 3
10 22 79 42 153 58 212 78 281 81 277 2 -2 -10 -55 -26 -119 -16 -63 -45 -191
-65 -284 -75 -351 -152 -633 -176 -642 -19 -8 -6 -37 52 -117 37 -52 70 -110
84 -152 13 -37 37 -97 53 -133 51 -112 102 -344 102 -462 0 -31 3 -38 13 -31
6 6 24 13 40 17 26 6 27 5 27 -37 0 -111 72 -430 116 -519 62 -121 404 -287
649 -313 33 -4 68 -9 79 -12 10 -3 16 -1 13 4 -3 5 -52 16 -109 23 -121 16
-219 45 -343 104 -223 106 -285 171 -329 343 -17 67 -53 294 -59 370 l-4 51
71 28 c99 38 197 97 236 141 18 20 45 62 59 93 23 51 26 68 29 228 l4 173 42
-34 c128 -104 279 -142 402 -100 60 20 137 65 184 106 l35 31 11 -125 c15
-158 16 -181 15 -196 -1 -6 -29 -42 -63 -80 -79 -85 -121 -139 -142 -180 -18
-35 -22 -70 -5 -38 34 62 139 197 139 179 0 -3 -21 -34 -46 -70 -25 -35 -59
-88 -75 -116 -19 -35 -29 -46 -29 -33 -1 13 -5 7 -13 -15 -7 -20 -35 -62 -62
-95 -84 -104 -125 -217 -125 -350 0 -98 19 -177 65 -270 44 -90 93 -146 211
-240 99 -80 120 -104 127 -145 2 -14 2 -19 0 -12 -3 6 -9 12 -15 12 -5 0 -7
-7 -4 -15 3 -8 8 -21 11 -28 7 -17 -31 -57 -54 -57 -26 0 -61 37 -61 65 0 32
-13 32 -39 -1 -47 -60 -15 -153 66 -196 23 -12 38 -25 32 -29 -5 -3 25 -16 67
-29 95 -28 196 -25 261 8 23 12 53 22 66 22 12 0 28 5 34 11 7 7 13 7 17 1 3
-5 -16 -15 -42 -22 -44 -12 -79 -30 -56 -30 36 1 141 34 176 56 23 15 68 39
99 54 54 25 149 96 176 130 9 12 11 8 9 -22 -2 -21 1 -35 5 -32 5 3 9 19 9 36
0 16 9 43 20 58 11 16 31 52 44 81 l25 52 8 -29 c13 -47 9 -304 -6 -354 -32
-111 -105 -273 -219 -486 -49 -92 -52 -143 -16 -296 15 -63 22 -78 37 -78 10
0 17 5 15 12 -3 7 0 18 6 24 22 22 174 84 242 99 38 8 83 19 99 25 27 9 25 9
-15 5 -25 -3 -56 -8 -70 -11 -20 -4 -22 -3 -10 5 13 9 13 11 -2 11 -10 0 -18
-5 -18 -11 0 -5 -4 -8 -9 -5 -5 4 -12 0 -14 -6 -4 -10 -2 95 2 125 3 17 49 6
59 -15 l11 -23 0 22 c1 23 -19 34 -69 35 l-29 1 0 68 c0 38 -2 73 -5 78 -4 5
-1 13 5 17 8 4 7 9 -2 15 -12 7 -12 9 -1 9 10 0 12 8 7 30 -12 52 -13 100 -2
100 6 0 6 4 -1 13 -14 18 -8 62 9 60 10 -2 14 10 14 50 0 28 -2 54 -5 57 -10
8 21 131 31 124 15 -9 10 87 -12 238 -18 126 -19 153 -8 224 18 122 9 229 -26
295 -38 74 -89 150 -157 237 -55 70 -110 157 -135 215 -20 43 -7 32 33 -30 80
-125 144 -210 265 -348 15 -16 38 -43 53 -60 14 -16 25 -25 25 -20 0 14 -37
63 -147 196 -160 193 -223 297 -238 393 -6 46 -5 49 12 42 11 -5 42 -16 69
-26 164 -58 352 -167 427 -247 51 -55 69 -92 94 -187 26 -99 54 -332 84 -691
28 -341 56 -630 85 -876 14 -113 28 -252 31 -310 6 -95 5 -108 -15 -147 -42
-83 -271 -276 -468 -395 -8 -5 -11 29 -11 135 1 79 1 198 0 265 -2 121 -2 123
-32 156 -33 38 -56 48 -85 36 -17 -7 -16 -8 8 -8 15 -1 27 -7 28 -13 0 -7 0
-263 -1 -568 -1 -381 -5 -557 -12 -561 -6 -4 23 -12 63 -19 186 -30 253 -114
300 -375 11 -60 25 -141 30 -180 25 -170 44 -219 113 -292 53 -58 6 -35 -53
25 -33 34 -78 97 -110 155 -45 82 -56 113 -73 204 -53 286 -77 325 -207 330
-58 2 -69 6 -89 30 -15 18 -22 38 -19 55 2 15 0 25 -5 22 -21 -13 -7 -63 27
-93 l35 -30 0 -90 c0 -50 -5 -114 -11 -143 -36 -166 -184 -319 -354 -364 -41
-11 -385 -14 -1885 -14 -1617 0 -1843 2 -1895 15 -157 41 -286 165 -335 322
-17 57 -20 107 -25 585 -3 288 -5 630 -5 761 0 156 -3 236 -10 232 -6 -4 -10
20 -10 64 l0 71 39 0 39 0 7 -64 6 -64 46 -7 c24 -3 46 -5 48 -3 2 3 -4 102
-19 273 -5 55 -4 58 9 34 23 -42 67 -212 61 -239 -2 -14 -8 -33 -11 -42 -6
-14 -2 -18 14 -18 12 0 21 5 21 11 0 5 4 7 10 4 5 -3 7 0 5 7 -3 8 1 33 10 57
8 24 15 54 15 67 0 13 4 24 10 24 13 0 1 87 -18 125 -15 31 -63 93 -118 154
-18 19 -31 39 -28 43 3 4 1 8 -4 8 -5 0 -15 14 -22 30 -7 17 -16 30 -20 30 -4
0 -10 9 -13 21 -4 14 -10 18 -19 13 -7 -4 -10 -4 -6 1 4 4 -1 20 -12 35 -11
16 -20 33 -20 39 0 6 -4 11 -9 11 -5 0 -19 30 -32 67 -24 73 -26 81 -34 158
-9 79 -15 96 -26 89 -13 -7 -5 -120 12 -176 5 -18 12 -51 15 -73 3 -22 12 -59
20 -82 9 -24 13 -47 10 -52 -4 -5 -2 -12 3 -15 6 -4 8 9 6 30 l-3 37 18 -28
c11 -16 17 -32 14 -36 -2 -4 0 -10 6 -14 5 -3 10 -19 10 -34 0 -15 5 -32 11
-38 5 -5 12 -41 14 -79 l4 -69 -14 40 c-9 27 -14 33 -14 18 -1 -12 3 -33 8
-46 5 -13 12 -60 14 -105 3 -45 9 -87 14 -94 19 -32 12 -39 -35 -36 -43 3 -47
5 -53 33 -4 17 -8 23 -9 15 -6 -48 -6 -61 2 -66 4 -3 8 -34 8 -70 0 -80 -5
-86 -127 -148 -51 -26 -112 -66 -135 -88 l-43 -39 65 44 c73 50 177 104 185
95 3 -3 4 -147 3 -321 l-3 -315 -89 65 c-49 36 -126 102 -171 146 -112 113
-120 139 -111 370 4 93 13 248 21 346 13 167 23 401 45 1116 17 522 37 591
204 704 80 54 141 87 234 125 55 22 63 23 57 8 -4 -9 -10 -39 -15 -67 -29
-165 -38 -190 -131 -375 -35 -70 -65 -118 -67 -108 -2 9 6 36 17 59 27 56 19
63 -9 9 -13 -25 -20 -55 -18 -71 3 -15 1 -26 -3 -23 -4 2 -7 -4 -7 -13 1 -10
-6 -46 -15 -81 -30 -114 -16 -307 29 -394 15 -29 15 -31 1 -19 -9 7 -29 38
-44 70 -26 52 -28 64 -28 186 0 107 4 142 22 195 12 36 24 81 27 100 8 48 45
125 101 210 51 78 105 187 105 210 0 8 -19 -21 -42 -65 -22 -44 -58 -106 -79
-137 -22 -31 -39 -59 -39 -62 0 -3 -10 -21 -22 -42 -20 -35 -22 -36 -36 -18
-14 18 -14 18 -7 -1 4 -11 9 -27 12 -35 2 -8 -10 -60 -28 -115 -25 -79 -33
-123 -37 -209 -6 -137 13 -216 69 -286 22 -27 39 -53 39 -57 1 -4 21 -21 45
-36 30 -19 42 -33 38 -43 -5 -12 0 -15 23 -12 16 1 29 -1 30 -7 2 -19 16 -45
25 -45 6 0 4 10 -2 23 -12 22 -12 22 9 3 12 -10 20 -21 19 -25 -2 -9 76 -111
81 -106 7 7 -28 58 -57 82 -14 12 -23 22 -19 23 8 0 37 -22 69 -52 9 -9 19
-15 21 -13 2 2 26 -2 53 -9 42 -11 50 -17 51 -37 0 -13 5 -33 11 -43 10 -19
11 -18 18 3 4 13 2 28 -5 36 -10 12 -6 18 23 30 30 13 39 13 62 1 18 -9 22
-16 13 -19 -7 -2 -1 -3 14 -1 21 2 26 0 21 -11 -3 -8 0 -15 6 -15 6 0 11 5 11
10 0 6 5 10 10 10 6 0 10 -7 10 -15 0 -8 -7 -15 -16 -15 -13 0 -14 -3 -4 -14
16 -20 42 -8 38 17 -3 18 4 22 41 29 24 4 60 19 80 33 20 13 47 32 61 42 l25
17 -24 -27 c-32 -36 -12 -35 22 1 24 25 28 40 34 110 4 57 3 82 -5 82 -6 0
-15 -6 -19 -14 -21 -34 -117 -52 -148 -26 -20 16 -42 60 -39 78 1 6 2 21 3 33
1 16 12 7 51 -40 27 -33 54 -62 60 -66 22 -13 8 10 -44 72 -59 71 -68 96 -57
163 12 68 41 160 52 160 5 0 9 -5 9 -12 0 -6 3 -8 6 -5 4 4 1 13 -6 22 -16 19
-14 19 56 -7 54 -21 77 -23 259 -23 214 0 234 4 410 65 80 27 185 76 185 85 0
3 -12 -1 -27 -9 -67 -34 -210 -86 -295 -107 -79 -20 -119 -23 -273 -23 -142 0
-191 4 -235 17 -75 24 -85 30 -66 46 24 20 92 207 116 320 41 192 19 357 -73
538 l-41 82 22 24 c48 51 65 128 70 315 4 158 9 190 28 161 15 -24 143 -98
199 -114 111 -33 236 -4 363 83 37 24 70 50 74 56 4 6 8 -18 8 -54 0 -36 5
-105 11 -155 27 -220 94 -291 357 -376 121 -40 115 -22 77 -234 -45 -257 -91
-402 -144 -449 -9 -8 -49 -37 -90 -65 -41 -28 -70 -51 -65 -51 5 0 47 26 94
58 76 51 89 65 118 122 38 75 82 245 112 434 12 72 23 133 26 135 2 2 25 -2
52 -10 40 -12 50 -21 69 -59 31 -64 56 -160 118 -461 92 -447 90 -427 89 -694
0 -137 -6 -277 -13 -325 -50 -343 -46 -446 21 -650 12 -36 24 -67 26 -70 5 -7
179 -10 235 -4 l47 6 -4 106 c-2 59 -5 118 -5 132 -1 20 -3 22 -11 10 -6 -9
-10 -10 -10 -3 0 6 4 15 10 18 6 3 10 18 9 33 l-1 27 -8 -25 c-6 -18 -8 -10
-7 30 2 89 -13 331 -23 385 -5 28 -14 86 -19 130 -8 74 -8 72 -3 -30 9 -170 6
-265 -7 -265 -4 0 -14 35 -20 77 -7 43 -21 114 -31 158 l-20 80 5 -75 c12
-162 13 -306 3 -275 -5 17 -16 44 -24 62 -8 17 -13 48 -13 70 2 33 3 34 6 8 3
-16 8 -34 13 -39 9 -9 8 -4 -5 59 l-7 30 -13 -25 c-12 -22 -14 -23 -14 -5 0
11 -4 58 -7 104 -4 52 -2 104 5 140 11 52 110 370 151 486 72 204 94 360 71
485 -6 31 -4 69 6 125 32 166 0 426 -77 635 -17 47 -44 121 -60 164 -15 43
-49 109 -75 147 -57 83 -91 114 -44 39 64 -100 97 -173 138 -305 86 -280 111
-450 90 -619 -7 -57 -15 -93 -19 -85 -4 8 -3 41 2 74 20 118 -8 361 -60 535
-11 36 -26 86 -33 113 -7 26 -16 47 -20 47 -4 0 -6 11 -6 24 0 25 -51 120
-103 191 -36 49 -137 269 -180 390 -30 87 -104 367 -150 570 -43 192 -100 345
-172 465 -50 81 -142 193 -191 229 -94 72 -137 85 -269 87 -111 1 -119 3 -149
28 -52 44 -97 58 -180 58 -113 0 -284 -62 -417 -149 -111 -74 -253 -239 -358
-418 -26 -44 -81 -136 -123 -204 -66 -108 -76 -121 -82 -100 -12 41 -10 2430
1 2490 39 206 217 385 425 429 22 4 204 7 403 7 l364 -2 23 -28z m-3090 3 c3
-5 1 -10 -4 -10 -6 0 -11 5 -11 10 0 6 2 10 4 10 3 0 8 -4 11 -10z m375 0 c0
-5 -4 -10 -10 -10 -5 0 -10 5 -10 10 0 6 5 10 10 10 6 0 10 -4 10 -10z m407
-22 c-3 -8 -6 -5 -6 6 -1 11 2 17 5 13 3 -3 4 -12 1 -19z m1343 17 c0 -2 -10
-9 -22 -15 -22 -11 -22 -10 -4 4 21 17 26 19 26 11z m-1750 -25 c0 -5 -4 -10
-10 -10 -5 0 -10 5 -10 10 0 6 5 10 10 10 6 0 10 -4 10 -10z m6937 -42 c-3 -7
-5 -2 -5 12 0 14 2 19 5 13 2 -7 2 -19 0 -25z m-7312 12 c3 -5 1 -10 -4 -10
-6 0 -11 5 -11 10 0 6 2 10 4 10 3 0 8 -4 11 -10z m375 -30 c0 -22 -4 -40 -9
-40 -5 0 -8 18 -8 40 1 22 5 40 9 40 4 0 8 -18 8 -40z m407 18 c-3 -8 -6 -5
-6 6 -1 11 2 17 5 13 3 -3 4 -12 1 -19z m582 -57 c16 -31 28 -40 56 -45 34 -7
50 -26 20 -26 -30 0 -64 -24 -74 -51 -13 -39 -25 -36 -58 14 -22 32 -37 43
-63 48 -19 4 -27 7 -17 8 34 2 74 30 87 61 16 40 26 38 49 -9z m-1362 14 c0
-8 -4 -15 -9 -15 -4 0 -8 7 -8 15 0 8 4 15 8 15 5 0 9 -7 9 -15z m6883 -20 c9
-28 18 -36 46 -41 23 -4 32 -10 26 -16 -7 -7 -23 -6 -46 2 -27 8 -36 17 -36
33 0 43 -15 49 -33 12 -9 -19 -22 -35 -27 -35 -12 0 -8 8 22 53 25 36 34 34
48 -8z m-6510 -31 c0 -14 -4 -23 -10 -19 -5 3 -10 15 -10 26 0 10 5 19 10 19
6 0 10 -12 10 -26z m8192 4 c-12 -12 1 -48 17 -48 15 0 22 32 10 46 -7 8 -7
14 -1 14 5 0 15 -7 22 -15 10 -13 10 -19 -5 -35 -24 -27 -39 -25 -54 6 -12 27
-8 44 12 44 8 0 8 -3 -1 -12z m-8567 -7 c3 -5 1 -12 -5 -16 -5 -3 -10 1 -10 9
0 18 6 21 15 7z m6811 -19 c15 -9 46 -82 35 -82 -4 0 -14 15 -22 33 -10 23
-22 33 -41 35 -16 2 -28 8 -28 13 0 11 40 12 56 1z m80 -17 c13 -13 13 -18 -1
-45 -8 -16 -17 -30 -19 -30 -1 0 -3 20 -3 45 0 50 2 52 23 30z m-6516 -5 c0
-5 -4 -10 -10 -10 -5 0 -10 5 -10 10 0 6 5 10 10 10 6 0 10 -4 10 -10z m415 0
c3 -5 1 -10 -4 -10 -6 0 -11 5 -11 10 0 6 2 10 4 10 3 0 8 -4 11 -10z m-785
-10 c0 -5 -4 -10 -10 -10 -5 0 -10 5 -10 10 0 6 5 10 10 10 6 0 10 -4 10 -10z
m7320 0 c0 -5 -4 -10 -10 -10 -5 0 -10 5 -10 10 0 6 5 10 10 10 6 0 10 -4 10
-10z m-6950 -20 c0 -5 -4 -10 -10 -10 -5 0 -10 5 -10 10 0 6 5 10 10 10 6 0
10 -4 10 -10z m6800 -20 c0 -21 -24 -28 -35 -10 -8 14 3 30 21 30 8 0 14 -9
14 -20z m145 0 c-2 -31 -15 -37 -15 -7 0 15 4 27 8 27 5 0 8 -9 7 -20z m-6945
-10 c0 -5 -4 -10 -10 -10 -5 0 -10 5 -10 10 0 6 5 10 10 10 6 0 10 -4 10 -10z
m414 -25 c3 -8 1 -15 -4 -15 -6 0 -10 7 -10 15 0 8 2 15 4 15 2 0 6 -7 10 -15z
m-414 -5 c0 -5 -4 -10 -10 -10 -5 0 -10 5 -10 10 0 6 5 10 10 10 6 0 10 -4 10
-10z m-698 -52 c22 -11 48 -60 48 -90 -1 -59 -120 -188 -173 -188 -20 0 -97
72 -131 124 -36 53 -35 99 3 137 22 22 39 29 68 29 22 0 44 -5 49 -10 7 -7 20
-6 39 4 29 15 61 13 97 -6z m328 12 c0 -5 -5 -10 -11 -10 -5 0 -7 5 -4 10 3 6
8 10 11 10 2 0 4 -4 4 -10z m7316 -25 c0 -19 -3 -35 -6 -35 -4 0 -7 16 -8 35
-1 19 2 35 6 35 4 0 7 -16 8 -35z m901 3 c-3 -7 -5 -2 -5 12 0 14 2 19 5 13 2
-7 2 -19 0 -25z m-7847 12 c0 -5 -4 -10 -10 -10 -5 0 -10 5 -10 10 0 6 5 10
10 10 6 0 10 -4 10 -10z m-375 -20 c3 -5 1 -10 -4 -10 -6 0 -11 5 -11 10 0 6
2 10 4 10 3 0 8 -4 11 -10z m375 -10 c0 -5 -4 -10 -10 -10 -5 0 -10 5 -10 10
0 6 5 10 10 10 6 0 10 -4 10 -10z m7259 -38 c14 -11 14 -14 1 -22 -23 -15 -25
-13 -27 28 -1 20 1 30 4 22 3 -8 13 -21 22 -28z m-7634 18 c3 -5 1 -10 -4 -10
-6 0 -11 5 -11 10 0 6 2 10 4 10 3 0 8 -4 11 -10z m375 -15 c0 -8 -4 -15 -10
-15 -5 0 -10 7 -10 15 0 8 5 15 10 15 6 0 10 -7 10 -15z m6945 -5 c3 -5 1 -10
-4 -10 -6 0 -11 5 -11 10 0 6 2 10 4 10 3 0 8 -4 11 -10z m902 -12 c-3 -8 -6
-5 -6 6 -1 11 2 17 5 13 3 -3 4 -12 1 -19z m-7850 -28 c-1 -11 -5 -20 -9 -20
-3 0 -6 9 -5 20 1 11 5 20 9 20 3 0 6 -9 5 -20z m6948 10 c3 -5 1 -10 -4 -10
-6 0 -11 5 -11 10 0 6 2 10 4 10 3 0 8 -4 11 -10z m-7315 -10 c0 -5 -4 -10
-10 -10 -5 0 -10 5 -10 10 0 6 5 10 10 10 6 0 10 -4 10 -10z m785 0 c3 -5 1
-10 -4 -10 -6 0 -11 5 -11 10 0 6 2 10 4 10 3 0 8 -4 11 -10z m6535 -20 c0 -5
-4 -10 -10 -10 -5 0 -10 5 -10 10 0 6 5 10 10 10 6 0 10 -4 10 -10z m-6950
-45 c0 -19 -4 -35 -8 -35 -4 0 -8 16 -9 35 0 19 3 35 8 35 5 0 9 -16 9 -35z
m6950 15 c0 -5 -4 -10 -10 -10 -5 0 -10 5 -10 10 0 6 5 10 10 10 6 0 10 -4 10
-10z m-7320 -4 c0 -3 -4 -8 -10 -11 -5 -3 -10 -1 -10 4 0 6 5 11 10 11 6 0 10
-2 10 -4z m7320 -26 c0 -5 -4 -10 -10 -10 -5 0 -10 5 -10 10 0 6 5 10 10 10 6
0 10 -4 10 -10z m-7325 -30 c3 -5 1 -10 -4 -10 -6 0 -11 5 -11 10 0 6 2 10 4
10 3 0 8 -4 11 -10z m375 -10 c0 -5 -4 -10 -10 -10 -5 0 -10 5 -10 10 0 6 5
10 10 10 6 0 10 -4 10 -10z m6945 -90 c0 -44 -3 -80 -7 -80 -5 0 -8 39 -8 87
0 47 3 83 7 79 4 -3 7 -42 8 -86z m-7315 66 c0 -3 -4 -8 -10 -11 -5 -3 -10 -1
-10 4 0 6 5 11 10 11 6 0 10 -2 10 -4z m370 -6 c0 -5 -2 -10 -4 -10 -3 0 -8 5
-11 10 -3 6 -1 10 4 10 6 0 11 -4 11 -10z m410 0 c0 -5 -5 -10 -11 -10 -5 0
-7 5 -4 10 3 6 8 10 11 10 2 0 4 -4 4 -10z m7437 -22 c-3 -8 -6 -5 -6 6 -1 11
2 17 5 13 3 -3 4 -12 1 -19z m-8222 -8 c3 -5 1 -10 -4 -10 -6 0 -11 5 -11 10
0 6 2 10 4 10 3 0 8 -4 11 -10z m375 0 c0 -5 -4 -10 -10 -10 -5 0 -10 5 -10
10 0 6 5 10 10 10 6 0 10 -4 10 -10z m0 -30 c0 -5 -4 -10 -10 -10 -5 0 -10 5
-10 10 0 6 5 10 10 10 6 0 10 -4 10 -10z m7847 -22 c-3 -8 -6 -5 -6 6 -1 11 2
17 5 13 3 -3 4 -12 1 -19z m-7850 -43 c-1 -41 2 -46 39 -71 95 -64 142 -129
184 -260 l26 -82 24 35 c13 18 48 56 77 83 49 44 54 54 55 91 0 26 3 36 9 28
4 -7 5 -26 2 -41 -3 -15 -3 -28 -1 -28 3 0 33 12 69 27 86 36 212 39 256 7 51
-38 44 -83 -25 -158 -52 -56 -62 -73 -88 -156 -20 -64 -68 -117 -113 -126 -17
-4 -31 -9 -32 -13 -1 -3 -3 -23 -5 -44 -5 -63 -33 -132 -65 -165 -34 -35 -95
-56 -133 -46 -51 13 -96 95 -96 178 0 61 -14 76 -36 40 -49 -80 -68 -102 -105
-123 -31 -18 -51 -22 -81 -18 -105 14 -137 137 -69 272 17 33 23 55 16 55 -20
0 -56 47 -65 84 -5 21 -4 66 3 106 9 61 8 78 -12 151 -12 45 -20 92 -17 105
13 49 80 66 149 39 14 -6 17 -1 17 34 0 23 4 41 9 41 5 0 9 -20 8 -45z m413
20 c0 -8 -2 -15 -4 -15 -2 0 -6 7 -10 15 -3 8 -1 15 4 15 6 0 10 -7 10 -15z
m-780 -35 c0 -5 -4 -10 -10 -10 -5 0 -10 5 -10 10 0 6 5 10 10 10 6 0 10 -4
10 -10z m785 -10 c3 -5 1 -10 -4 -10 -6 0 -11 5 -11 10 0 6 2 10 4 10 3 0 8
-4 11 -10z m-785 -40 c0 -5 -5 -10 -11 -10 -5 0 -7 5 -4 10 3 6 8 10 11 10 2
0 4 -4 4 -10z m783 -5 c4 -8 2 -17 -3 -20 -6 -4 -10 3 -10 14 0 25 6 27 13 6z
m6534 -5 c1 -11 -2 -22 -8 -25 -5 -4 -9 5 -9 19 0 30 15 35 17 6z m-7317 -20
c0 -5 -4 -10 -10 -10 -5 0 -10 5 -10 10 0 6 5 10 10 10 6 0 10 -4 10 -10z m0
-30 c0 -5 -4 -10 -10 -10 -5 0 -10 5 -10 10 0 6 5 10 10 10 6 0 10 -4 10 -10z
m786 -10 c0 -11 -6 -20 -12 -20 -7 0 -10 8 -7 20 3 11 8 20 12 20 4 0 7 -9 7
-20z m7431 -17 c-3 -10 -5 -4 -5 12 0 17 2 24 5 18 2 -7 2 -21 0 -30z m-897 7
c0 -5 -4 -10 -10 -10 -5 0 -10 5 -10 10 0 6 5 10 10 10 6 0 10 -4 10 -10z
m-7325 -10 c3 -5 1 -10 -4 -10 -6 0 -11 5 -11 10 0 6 2 10 4 10 3 0 8 -4 11
-10z m7325 -20 c0 -5 -4 -10 -10 -10 -5 0 -10 5 -10 10 0 6 5 10 10 10 6 0 10
-4 10 -10z m-7320 -4 c0 -3 -4 -8 -10 -11 -5 -3 -10 -1 -10 4 0 6 5 11 10 11
6 0 10 -2 10 -4z m7320 -26 c0 -5 -4 -10 -10 -10 -5 0 -10 5 -10 10 0 6 5 10
10 10 6 0 10 -4 10 -10z m-7320 -10 c0 -5 -4 -10 -10 -10 -5 0 -10 5 -10 10 0
6 5 10 10 10 6 0 10 -4 10 -10z m-3 -40 c-1 -11 -5 -20 -9 -20 -3 0 -6 9 -5
20 1 11 5 20 9 20 3 0 6 -9 5 -20z m1457 -5 c3 -8 13 -15 23 -15 15 0 15 -2
-3 -14 -10 -8 -20 -19 -20 -25 -1 -6 -2 -13 -3 -16 0 -2 -13 7 -27 22 -24 24
-24 26 -8 44 21 23 30 24 38 4z m5866 5 c0 -5 -4 -10 -10 -10 -5 0 -10 5 -10
10 0 6 5 10 10 10 6 0 10 -4 10 -10z m897 -22 c-3 -8 -6 -5 -6 6 -1 11 2 17 5
13 3 -3 4 -12 1 -19z m-897 -8 c0 -5 -4 -10 -10 -10 -5 0 -10 5 -10 10 0 6 5
10 10 10 6 0 10 -4 10 -10z m-7323 -30 c1 -11 -2 -20 -8 -20 -5 0 -9 9 -9 20
0 11 4 20 8 20 4 0 8 -9 9 -20z m7320 -30 c-1 -22 -5 -40 -9 -40 -4 0 -8 18
-8 40 0 22 4 40 9 40 6 0 9 -18 8 -40z m900 -2 c-3 -8 -6 -5 -6 6 -1 11 2 17
5 13 3 -3 4 -12 1 -19z m-8217 -8 c0 -5 -5 -10 -11 -10 -5 0 -7 5 -4 10 3 6 8
10 11 10 2 0 4 -4 4 -10z m1205 0 c3 -6 4 -19 0 -30 -7 -23 -35 -16 -35 9 0
29 22 42 35 21z m7012 -32 c-3 -8 -6 -5 -6 6 -1 11 2 17 5 13 3 -3 4 -12 1
-19z m-8222 2 c3 -5 1 -10 -4 -10 -6 0 -11 5 -11 10 0 6 2 10 4 10 3 0 8 -4
11 -10z m7325 -20 c0 -5 -4 -10 -10 -10 -5 0 -10 5 -10 10 0 6 5 10 10 10 6 0
10 -4 10 -10z m897 -32 c-3 -7 -5 -2 -5 12 0 14 2 19 5 13 2 -7 2 -19 0 -25z
m-8217 7 c0 -8 -4 -15 -8 -15 -5 0 -9 7 -9 15 0 8 4 15 9 15 4 0 8 -7 8 -15z
m1778 -838 c2 -463 8 -879 13 -925 11 -96 12 -94 -76 -207 -94 -120 -238 -259
-462 -447 -112 -93 -203 -171 -203 -174 0 -22 337 255 489 400 132 128 307
342 373 458 18 32 56 93 83 137 28 44 79 128 115 187 81 132 198 275 282 343
69 57 181 116 261 137 62 17 70 17 62 4 -3 -5 -14 -10 -23 -10 -9 0 -54 -14
-100 -32 -85 -34 -165 -87 -241 -160 -61 -60 -205 -258 -275 -380 -74 -128
-209 -333 -272 -413 -139 -177 -330 -375 -527 -544 -59 -51 -106 -95 -104 -97
6 -6 121 33 207 70 288 127 532 354 730 680 56 93 73 111 29 31 -54 -99 -183
-285 -251 -362 -121 -138 -322 -283 -533 -384 -111 -53 -237 -99 -271 -99 -52
0 -256 -142 -387 -269 -145 -141 -233 -267 -304 -436 l-34 -80 7 50 c27 201
264 512 479 629 28 15 61 35 75 46 l25 19 -50 -15 c-27 -9 -62 -19 -77 -24
-15 -5 -66 -25 -115 -46 -268 -114 -398 -268 -439 -520 -11 -70 -11 -92 2
-150 25 -113 27 -131 16 -138 -12 -7 -50 79 -62 145 -21 109 -2 226 54 342 55
116 138 205 296 320 35 26 -46 -21 -95 -54 -22 -15 -63 -51 -91 -81 -104 -109
-154 -192 -185 -304 -36 -132 -15 -300 50 -393 13 -18 20 -54 24 -117 16 -235
128 -422 337 -564 55 -37 160 -94 160 -86 0 2 -13 33 -30 68 -84 179 -56 437
74 697 47 93 170 264 227 316 18 17 9 3 -20 -30 -117 -133 -228 -328 -260
-460 -60 -241 -6 -524 122 -642 47 -43 131 -90 202 -113 23 -7 66 -37 101 -69
74 -70 137 -108 201 -121 l48 -11 -2 -112 c-5 -204 -24 -611 -33 -682 -5 -38
-10 -100 -10 -136 0 -44 -5 -70 -14 -78 -7 -6 -12 -21 -11 -34 1 -12 0 -14 -2
-4 -2 9 -8 17 -13 17 -5 0 -11 8 -13 18 -3 9 -6 -28 -8 -83 l-3 -100 -6 75
c-4 41 -8 64 -9 50 -1 -14 -5 -19 -8 -12 -2 6 -9 12 -14 12 -4 0 -5 -8 -2 -17
5 -12 2 -15 -10 -10 -19 7 -21 1 -8 -39 5 -16 19 -63 31 -104 11 -41 25 -82
29 -90 4 -8 16 -46 26 -85 10 -38 22 -72 25 -75 4 -3 10 -22 13 -43 l6 -38
-23 33 c-25 37 -235 252 -222 228 7 -13 6 -13 -6 0 -7 8 -26 22 -41 30 -52 29
-342 214 -377 240 -87 67 -176 130 -182 130 -4 0 -5 -7 -1 -16 4 -12 2 -15 -8
-12 -8 3 -13 11 -12 17 2 6 -9 12 -25 12 -16 1 -20 3 -10 6 30 8 20 23 -14 24
-18 0 -41 2 -50 4 -10 2 -18 -1 -18 -7 0 -14 160 -167 182 -174 10 -3 18 -10
18 -15 0 -5 7 -9 15 -9 8 0 15 -4 15 -8 0 -8 96 -58 180 -95 165 -72 325 -160
393 -217 7 -6 24 -19 39 -31 35 -26 187 -207 198 -236 5 -11 14 -24 19 -28 6
-3 11 -15 11 -26 0 -10 5 -19 11 -19 6 0 8 -7 5 -16 -4 -10 -2 -13 6 -8 8 5 9
2 5 -10 -4 -9 -3 -15 2 -11 5 3 16 -7 24 -22 8 -16 28 -54 46 -86 18 -31 28
-57 24 -57 -4 0 1 -7 11 -15 25 -19 15 -30 -13 -15 -22 11 -29 30 -11 30 5 0
7 7 4 15 -8 20 -21 19 -28 -2 -3 -10 -4 -7 -2 7 2 24 0 25 -47 21 -53 -3 -68
-20 -46 -49 17 -20 24 -25 -116 82 -55 42 -113 89 -130 104 -38 35 -140 112
-148 112 -17 0 -4 -17 30 -40 21 -14 49 -37 63 -51 14 -14 35 -32 48 -38 15
-8 21 -18 18 -27 -3 -9 -2 -12 5 -9 13 9 51 -24 43 -37 -3 -5 2 -8 12 -6 12 2
18 -2 16 -10 -1 -8 2 -11 7 -8 5 3 14 -1 20 -8 10 -11 8 -17 -6 -25 -16 -9
-16 -12 -3 -21 9 -6 10 -10 3 -10 -19 0 -26 19 -13 35 11 13 0 14 -76 10 -61
-4 -90 -1 -95 7 -5 7 -17 0 -38 -23 -17 -18 -31 -29 -31 -24 0 6 -5 2 -11 -8
-6 -9 -16 -15 -22 -11 -7 3 -4 -1 6 -9 23 -19 22 -27 -5 -27 -21 0 -21 0 -2
-15 10 -8 38 -15 62 -15 25 0 41 -4 37 -9 -7 -12 20 -27 71 -40 162 -40 374
-100 399 -113 17 -9 44 -19 60 -22 17 -4 40 -14 52 -24 l23 -17 -38 -1 c-20
-1 -61 -3 -89 -5 l-53 -4 0 -57 c0 -77 -20 -87 -21 -11 -1 32 -1 64 0 70 1 7
-5 10 -13 7 -8 -3 -12 -12 -9 -19 2 -8 -5 -28 -17 -45 -12 -16 -17 -30 -11
-30 6 0 11 -20 11 -45 0 -40 -3 -45 -26 -51 -15 -4 -23 -12 -20 -19 4 -12
-141 59 -154 75 -6 8 -88 50 -97 50 -16 0 53 -52 93 -69 26 -12 43 -25 39 -31
-3 -6 -11 -7 -17 -4 -6 4 -13 2 -17 -4 -3 -6 -31 -12 -60 -14 -43 -2 -55 -7
-57 -21 -1 -10 4 -21 12 -24 20 -7 17 -33 -5 -57 -19 -21 -19 -21 0 -45 17
-21 22 -22 30 -10 8 13 13 6 10 -13 0 -5 5 -8 13 -8 8 0 16 -6 19 -13 2 -7 29
-19 58 -26 30 -8 74 -23 99 -35 25 -12 65 -27 90 -34 25 -8 59 -17 75 -22 17
-5 60 -15 97 -21 38 -7 65 -15 62 -18 -2 -3 -94 -8 -202 -12 -108 -4 -258 -15
-332 -24 -91 -12 -206 -19 -350 -19 -197 -1 -221 1 -287 22 -82 25 -181 95
-164 116 5 6 33 20 61 30 28 10 49 20 47 22 -5 5 -77 -15 -114 -32 -31 -14
-31 -14 -90 45 -47 46 -71 62 -115 75 -31 9 -62 16 -70 16 -16 0 -109 35 -151
56 -54 28 -140 113 -170 167 -26 48 -22 72 13 87 30 12 41 12 225 -6 52 -5 64
-3 88 16 27 21 27 22 27 145 0 144 7 157 65 130 47 -23 86 -74 147 -193 59
-115 52 -106 141 -185 61 -54 68 -58 53 -30 -22 44 -21 120 4 160 22 37 67 63
107 63 46 -1 159 -45 223 -89 l60 -41 42 30 c66 46 151 72 256 78 50 2 92 9
92 13 0 5 -8 9 -17 10 -15 0 -15 2 2 9 l20 9 -20 1 c-11 0 -38 9 -60 20 -22
11 -46 19 -53 20 -8 0 -28 6 -45 14 -18 8 -62 24 -99 37 -38 12 -68 26 -68 31
0 4 -7 8 -16 8 -35 0 -227 115 -313 187 -67 56 -134 129 -176 193 -23 36 -51
72 -61 81 -11 9 -30 31 -44 50 -14 18 -50 63 -80 100 -172 210 -281 383 -432
682 -179 356 -292 695 -368 1097 -65 347 -71 845 -15 1225 45 306 162 750 238
899 15 31 20 63 21 140 2 82 8 114 28 168 15 36 23 70 20 74 -4 4 -1 3 7 -1
11 -6 13 -4 7 11 -4 10 -4 16 -1 12 3 -3 29 19 57 48 28 30 66 64 85 75 18 11
33 25 33 30 0 11 55 101 166 269 48 74 94 146 102 160 7 14 19 32 27 40 11 13
10 19 -7 40 -19 23 -19 24 -1 31 16 5 16 7 -4 13 -29 9 -29 17 1 43 18 16 26
36 31 77 8 59 14 66 35 41 11 -13 15 -13 22 -3 6 10 10 10 16 1 4 -7 16 -10
27 -8 11 2 25 4 31 4 5 1 45 35 88 77 62 60 76 78 65 86 -11 8 -10 8 4 4 14
-4 36 10 80 53 82 78 266 234 347 294 133 98 239 173 286 202 27 16 78 47 114
69 79 48 310 166 325 166 7 0 11 -265 13 -843z m5541 811 c0 -18 -4 -42 -9
-53 -6 -14 -9 -5 -8 33 1 28 5 52 10 52 4 0 8 -15 7 -32z m898 -30 c-3 -8 -6
-5 -6 6 -1 11 2 17 5 13 3 -3 4 -12 1 -19z m-8217 2 c0 -5 -4 -10 -10 -10 -5
0 -10 5 -10 10 0 6 5 10 10 10 6 0 10 -4 10 -10z m-4 -67 c-10 -10 -19 5 -10
18 6 11 8 11 12 0 2 -7 1 -15 -2 -18z m6562 -14 c66 -36 107 -60 194 -114 31
-19 213 -144 233 -159 11 -9 67 -53 125 -98 58 -45 123 -98 144 -117 22 -20
67 -61 100 -91 500 -455 880 -987 1099 -1540 91 -230 184 -537 208 -690 92
-588 86 -1039 -21 -1558 -18 -85 -19 -106 -9 -118 11 -13 10 -18 -3 -25 -18
-10 -34 -49 -73 -184 -14 -49 -30 -101 -35 -115 -20 -56 -83 -217 -95 -245 -8
-16 -36 -81 -64 -143 -28 -62 -79 -161 -113 -220 -34 -59 -72 -127 -86 -152
-35 -66 -135 -223 -203 -320 -33 -47 -68 -96 -77 -110 -53 -80 -162 -195 -193
-203 -16 -4 -79 45 -79 62 0 4 8 25 19 47 10 21 29 71 42 111 16 51 29 75 46
84 29 15 99 107 120 157 24 57 14 164 -17 198 -14 14 -34 30 -45 34 -19 7 -53
-5 -67 -25 -5 -6 -8 -5 -8 3 0 8 27 39 60 69 33 31 57 60 53 66 -3 6 -1 7 6 3
15 -10 43 13 34 27 -3 5 -1 7 5 3 17 -10 80 72 98 128 9 28 20 55 25 61 16 17
10 147 -10 199 l-19 50 2 -42 c0 -23 4 -42 8 -42 5 0 8 -17 7 -37 -1 -34 -2
-35 -9 -13 -7 20 -8 16 -9 -23 -1 -26 -10 -73 -22 -105 -12 -31 -22 -65 -23
-74 -1 -10 -6 -21 -11 -25 -4 -5 -5 -1 -1 7 4 8 -3 2 -15 -14 -32 -41 -116
-124 -145 -143 -14 -9 -23 -20 -21 -26 2 -6 -14 -28 -35 -49 -21 -21 -38 -43
-38 -47 0 -12 37 -21 83 -21 50 0 73 -13 85 -48 13 -37 5 -78 -24 -122 -22
-32 -164 -162 -204 -185 -35 -21 -73 -56 -67 -62 4 -3 15 1 24 9 22 18 85 50
90 44 4 -4 -46 -125 -60 -143 -6 -9 -15 -10 -28 -2 -32 17 -22 3 51 -71 l69
-70 69 0 c38 0 89 -7 112 -15 l43 -15 77 45 c42 25 86 45 97 45 28 0 35 -54
20 -150 -8 -50 -9 -92 -4 -125 23 -128 10 -171 -77 -255 -49 -48 -53 -56 -44
-79 44 -118 49 -290 12 -458 -14 -65 -27 -134 -28 -153 -2 -19 -7 -54 -11 -78
-6 -40 -5 -44 29 -74 59 -52 44 -88 -36 -88 -81 0 -108 44 -145 242 l-17 88
-33 -32 c-18 -18 -33 -29 -33 -27 0 3 9 32 20 64 11 32 20 68 20 79 -1 38
-110 -285 -110 -326 0 -11 7 -26 15 -34 18 -18 20 -55 3 -72 -7 -7 -31 -12
-54 -12 -71 0 -89 24 -120 165 -15 66 -33 145 -40 175 l-13 55 5 -50 c3 -27
14 -87 25 -133 11 -46 16 -88 13 -94 -6 -10 -88 -48 -104 -48 -4 0 -18 16 -31
34 -28 41 -56 56 -105 56 l-36 0 37 49 c47 65 56 128 28 192 -29 66 -85 119
-125 119 -7 0 3 -8 22 -19 49 -26 97 -92 105 -145 11 -70 -33 -156 -99 -197
l-30 -18 71 6 c70 6 72 5 103 -26 21 -20 30 -39 28 -53 -3 -23 -4 -23 -163
-23 -190 0 -218 8 -276 73 -89 101 -122 226 -94 349 9 36 24 85 34 108 30 68
110 182 154 221 68 60 203 117 327 139 14 2 55 12 92 21 66 16 68 16 100 -6
28 -18 27 -17 -6 11 -58 50 -122 199 -85 199 6 0 7 5 2 12 -4 7 -7 22 -5 33 2
18 1 18 -10 -3 -6 -12 -18 -22 -27 -23 -10 0 -12 -2 -3 -6 18 -7 15 -30 -5
-43 -17 -11 -17 -11 1 -6 16 5 17 4 7 -8 -7 -8 -10 -19 -7 -24 9 -14 -22 -37
-109 -80 -71 -35 -195 -90 -235 -105 -11 -4 -9 -6 5 -6 46 -3 47 -18 2 -44
-95 -56 -202 -201 -245 -332 l-9 -30 -8 37 c-4 20 -4 47 0 60 4 12 4 19 -1 15
-5 -5 -14 21 -20 56 -7 35 -27 100 -45 143 -31 73 -33 87 -32 186 0 59 6 131
13 160 14 58 54 155 75 178 46 51 78 81 119 110 48 35 60 55 26 42 -39 -14
-132 -106 -174 -171 -66 -101 -81 -155 -81 -297 0 -100 -2 -118 -13 -107 -23
23 -96 61 -129 68 l-33 7 0 93 0 93 48 59 c27 32 61 80 76 108 35 64 66 177
65 235 -1 44 -2 44 -10 -15 -16 -113 -77 -239 -156 -325 l-23 -25 0 47 c0 29
5 50 14 55 19 11 96 133 96 152 -1 9 -10 -2 -22 -24 -11 -22 -35 -58 -52 -80
l-31 -39 -5 89 c-7 106 -3 113 86 160 31 17 69 41 84 55 14 14 64 55 111 92
103 82 156 134 195 189 27 39 29 51 32 144 2 63 -4 170 -18 281 -43 365 -59
501 -65 579 -4 44 -8 87 -11 95 -3 13 15 16 129 16 78 0 157 6 192 14 33 8 67
15 75 15 179 9 372 95 458 204 22 28 54 87 71 130 35 91 63 247 55 302 -6 34
-3 39 27 60 55 36 108 108 115 157 13 84 -51 178 -158 233 -43 22 -189 59
-232 59 -16 0 -62 18 -103 40 -80 44 -95 47 -34 7 21 -14 64 -46 95 -72 31
-25 60 -44 65 -41 4 3 47 -2 96 -11 218 -40 291 -186 159 -317 l-29 -28 -11
39 c-21 70 -81 177 -139 243 -31 36 -61 67 -67 69 -5 2 17 -29 49 -67 71 -85
117 -167 138 -247 18 -69 20 -206 4 -291 -17 -91 -29 -100 -24 -17 6 98 -18
248 -55 339 -69 174 -186 304 -400 449 -216 146 -336 265 -467 465 -42 63 -84
127 -94 141 -61 89 -158 252 -154 259 3 5 0 12 -6 16 -8 5 -9 3 -4 -7 8 -12 6
-12 -8 0 -10 8 -15 16 -12 19 3 3 -3 14 -12 26 -11 12 -3 8 20 -9 22 -16 60
-59 85 -96 139 -199 177 -245 295 -362 72 -70 127 -130 123 -134 -3 -4 -28 13
-54 38 -25 24 -36 32 -24 18 13 -15 22 -30 21 -35 -1 -5 -1 -14 0 -20 2 -17
71 -89 82 -86 6 1 8 -2 5 -7 -3 -5 0 -14 8 -20 11 -9 13 -4 11 28 -1 21 -5 45
-9 52 -4 8 0 5 8 -5 9 -11 16 -24 16 -30 0 -5 2 -7 5 -5 7 7 -61 211 -86 262
-59 114 -142 207 -274 307 -38 29 -87 73 -109 99 -21 25 -106 118 -190 207
-83 88 -187 200 -230 250 -43 49 -116 130 -162 179 -46 50 -95 108 -110 130
l-26 40 35 -34 c20 -19 35 -37 34 -41 -1 -4 13 -20 31 -35 19 -16 97 -101 174
-189 139 -158 237 -260 245 -252 11 11 -79 171 -412 726 -18 30 -56 98 -85
150 -54 99 -185 280 -202 280 -5 0 -35 22 -66 48 -104 88 -176 125 -297 152
-36 9 -34 9 20 6 206 -13 398 -183 592 -526 33 -58 71 -124 86 -147 15 -23 79
-133 143 -245 64 -112 124 -214 134 -228 9 -14 45 -78 80 -143 94 -178 159
-251 346 -393 199 -149 243 -213 327 -465 25 -74 59 -164 76 -201 31 -65 113
-169 125 -158 9 10 -23 118 -63 209 -20 47 -73 145 -117 216 -45 72 -93 152
-109 179 -33 59 -122 147 -228 229 -186 141 -243 210 -360 439 l-62 122 2 180
c11 1043 20 1811 21 1814 4 5 17 0 90 -39z m797 -33 c38 -69 44 -73 112 -82
80 -10 84 -24 24 -86 l-51 -53 6 -74 7 -74 -64 34 -64 34 -70 -37 c-38 -20
-73 -34 -77 -32 -5 3 -5 42 -2 87 l6 82 -51 43 c-28 24 -51 47 -51 51 0 14 50
31 88 31 51 0 75 19 106 85 14 31 31 55 38 53 6 -2 25 -30 43 -62z m-7355 9
c0 -8 -4 -15 -10 -15 -5 0 -10 7 -10 15 0 8 5 15 10 15 6 0 10 -7 10 -15z m0
-51 c0 -8 -4 -14 -10 -14 -5 0 -10 9 -10 21 0 11 5 17 10 14 6 -3 10 -13 10
-21z m-4 -61 c-10 -10 -19 5 -10 18 6 11 8 11 12 0 2 -7 1 -15 -2 -18z m1 -53
c0 -16 -4 -30 -9 -30 -4 0 -8 14 -8 30 0 17 4 30 8 30 5 0 9 -13 9 -30z m8220
-27 c-3 -10 -5 -4 -5 12 0 17 2 24 5 18 2 -7 2 -21 0 -30z m-8217 -22 c0 -6
-4 -13 -10 -16 -5 -3 -10 1 -10 9 0 9 5 16 10 16 6 0 10 -4 10 -9z m8275 -102
c37 -73 42 -76 121 -85 30 -4 62 -13 71 -20 16 -12 13 -18 -41 -72 l-59 -60 8
-68 c4 -37 9 -73 12 -81 8 -21 -20 -15 -92 18 l-67 32 -71 -32 c-109 -47 -109
-48 -101 57 l7 88 -57 51 c-31 28 -56 56 -56 62 0 12 21 17 102 26 51 6 61 11
88 43 16 20 30 41 30 47 0 6 12 28 26 49 30 44 27 46 79 -55z m-8275 62 c0 -6
-4 -13 -10 -16 -5 -3 -10 1 -10 9 0 9 5 16 10 16 6 0 10 -4 10 -9z m831 -56
c10 -4 19 -11 19 -16 0 -12 -17 -12 -24 0 -4 5 -17 8 -31 7 -24 -3 -25 3 -1
33 9 12 11 12 14 -2 2 -9 12 -19 23 -22z m-835 -25 c-1 -27 -4 -50 -8 -50 -3
0 -6 23 -6 50 -1 28 3 50 7 50 4 0 7 -22 7 -50z m7773 -16 c-7 -9 -22 -20 -34
-25 -11 -5 -30 -16 -42 -25 -21 -15 -23 -15 -23 1 0 9 6 15 12 13 7 -3 17 -1
23 3 5 5 24 19 40 33 32 26 46 26 24 0z m-7769 -64 c0 -5 -4 -10 -10 -10 -5 0
-10 5 -10 10 0 6 5 10 10 10 6 0 10 -4 10 -10z m7632 -42 c-6 -6 -15 -8 -19
-4 -4 4 -1 11 7 16 19 12 27 3 12 -12z m-7637 -8 c3 -5 1 -10 -4 -10 -6 0 -11
5 -11 10 0 6 2 10 4 10 3 0 8 -4 11 -10z m7612 -16 c-3 -3 -12 -4 -19 -1 -8 3
-5 6 6 6 11 1 17 -2 13 -5z m-7607 -25 c0 -5 -4 -9 -10 -9 -5 0 -10 7 -10 16
0 8 5 12 10 9 6 -3 10 -10 10 -16z m7574 12 c3 -5 -1 -14 -9 -21 -11 -9 -14
-8 -12 9 1 22 12 28 21 12z m-7578 -51 c0 -11 -4 -20 -8 -20 -4 0 -8 9 -8 20
0 11 4 20 8 20 4 0 8 -9 8 -20z m7534 0 c-7 -4 -9 -13 -5 -20 6 -9 4 -11 -5
-5 -7 4 -16 2 -20 -5 -4 -7 -13 -9 -19 -6 -15 10 -14 26 2 21 7 -3 19 3 26 14
8 11 19 17 24 14 5 -3 4 -9 -3 -13z m-7538 -55 c3 -14 1 -25 -3 -25 -5 0 -9
11 -9 25 0 14 2 25 4 25 2 0 6 -11 8 -25z m7488 6 c0 -6 -5 -13 -10 -16 -8 -5
-7 -12 2 -22 12 -15 11 -15 -9 -2 -13 7 -25 20 -28 27 -2 7 -1 10 4 7 5 -3 12
-1 16 5 8 13 25 13 25 1z m-7480 -62 c0 -6 -4 -7 -10 -4 -5 3 -10 11 -10 16 0
6 5 7 10 4 6 -3 10 -11 10 -16z m0 -49 c0 -17 7 -42 16 -56 22 -33 6 -74 -29
-74 -48 0 -61 40 -27 83 11 14 20 37 20 51 0 14 5 26 10 26 6 0 10 -14 10 -30z
m2878 -17 c-10 -2 -28 -2 -40 0 -13 2 -5 4 17 4 22 1 32 -1 23 -4z m2416 -8
c-78 -17 -121 -38 -158 -78 l-29 -32 25 35 c41 56 107 88 188 88 26 0 20 -3
-26 -13z m-2344 -5 c11 -8 7 -9 -15 -4 -37 8 -45 14 -19 14 10 0 26 -5 34 -10z
m-2470 -20 c0 -5 -4 -10 -10 -10 -5 0 -10 5 -10 10 0 6 5 10 10 10 6 0 10 -4
10 -10z m2277 4 c-3 -3 -12 -4 -19 -1 -8 3 -5 6 6 6 11 1 17 -2 13 -5z m2736
-10 c72 -17 145 -48 182 -79 14 -12 9 -11 -15 3 -56 32 -150 62 -236 77 -55 9
-68 13 -41 14 21 1 70 -6 110 -15z m-2124 -89 c56 -28 109 -78 168 -159 90
-122 140 -254 198 -523 19 -87 57 -237 84 -333 28 -96 49 -175 47 -177 -10
-10 -117 339 -135 442 -21 115 -81 337 -108 398 -42 96 -103 193 -160 256 -60
67 -142 109 -231 119 -43 4 -51 7 -32 12 36 9 116 -8 169 -35z m1504 16 c-102
-29 -185 -94 -260 -203 -63 -91 -88 -141 -118 -231 -16 -50 -24 -65 -29 -51
-3 10 -4 7 -2 -9 2 -16 -3 -50 -11 -75 -7 -26 -27 -108 -44 -182 -17 -74 -33
-142 -36 -150 -3 -8 -7 -22 -8 -30 -4 -32 -37 -168 -56 -230 -11 -36 -29 -98
-40 -138 -36 -124 -31 -74 10 94 21 87 48 206 60 264 69 322 105 455 157 578
49 114 96 183 181 263 73 69 169 118 228 118 22 0 13 -5 -32 -18z m657 -46 c9
-8 20 -13 23 -10 4 3 5 2 2 -1 -2 -4 21 -25 53 -47 70 -49 126 -97 113 -97 -5
0 -12 4 -15 9 -12 18 -205 138 -236 146 -3 1 -12 5 -20 8 -8 3 -28 8 -45 11
-16 2 1 3 39 1 43 -3 75 -10 86 -20z m-109 -25 c78 -14 175 -66 243 -130 59
-55 156 -191 203 -285 34 -68 19 -49 -61 74 -125 193 -236 284 -398 325 -94
24 -86 34 13 16z m-2566 -41 c-115 -13 -123 -16 -195 -59 -81 -49 -216 -148
-212 -155 1 -3 -7 -15 -18 -28 -37 -40 -127 -165 -160 -221 -17 -31 -35 -58
-40 -61 -17 -10 88 164 137 228 41 54 153 181 153 173 0 -2 15 11 33 28 70 66
186 105 307 104 l65 -1 -70 -8z m534 -64 c30 -15 78 -71 101 -115 14 -29 8
-23 -45 44 -21 26 -52 57 -69 67 -37 22 -27 25 13 4z m1366 7 c-6 -5 -35 -31
-65 -58 -30 -27 -44 -35 -30 -19 33 39 52 57 76 72 23 14 32 16 19 5z m1046
-39 c13 -16 12 -17 -3 -4 -10 7 -18 15 -18 17 0 8 8 3 21 -13z m-3145 -18
c-11 -8 -27 -15 -35 -15 -9 1 -2 7 14 15 39 18 44 18 21 0z m3099 -12 l18 -28
-21 19 c-12 11 -22 23 -22 28 0 14 7 9 25 -19z m-3152 -9 c3 -4 -31 -35 -77
-70 -64 -49 -99 -86 -147 -155 -83 -118 -95 -133 -69 -84 45 85 184 258 230
286 50 30 54 32 63 23z m2220 -40 c-67 -51 -126 -118 -165 -186 -44 -78 -64
-104 -37 -48 45 93 110 179 170 224 34 26 65 46 71 46 5 0 -12 -16 -39 -36z
m407 16 c72 -14 148 -50 185 -88 17 -17 43 -65 59 -109 32 -86 98 -224 126
-264 l19 -25 -77 -12 c-138 -21 -202 -50 -202 -94 0 -17 5 -19 38 -15 20 2 73
14 117 25 44 11 100 24 125 27 l46 7 46 -59 c25 -32 69 -81 97 -110 l52 -51
-7 -94 c-13 -199 -92 -422 -193 -543 -55 -67 -160 -150 -238 -189 -148 -75
-303 -44 -476 93 -123 98 -181 179 -231 323 -29 85 -63 268 -72 392 l-6 81 42
62 c38 57 47 64 96 79 63 18 146 9 248 -26 73 -25 136 -27 136 -5 0 42 -78 81
-212 105 -78 14 -127 6 -178 -31 -64 -47 -33 -2 42 61 110 91 160 179 189 333
22 118 88 154 229 127z m-2084 -135 c46 -125 111 -248 169 -318 59 -71 47 -78
-16 -10 -49 52 -70 90 -119 213 -56 144 -81 199 -97 212 -7 6 -13 16 -13 22 1
26 52 -54 76 -119z m113 111 c31 -16 134 -124 152 -159 14 -28 4 -17 -59 60
-35 42 -68 69 -104 87 -29 14 -45 25 -35 26 10 0 31 -6 46 -14z m-175 -33 c13
-21 41 -85 61 -143 48 -136 89 -216 131 -260 l33 -35 -67 -1 c-120 -1 -252
-56 -252 -105 0 -25 18 -24 121 7 46 14 123 28 172 31 l87 6 40 -42 c21 -22
51 -60 64 -84 26 -43 26 -44 16 -170 -18 -239 -96 -458 -203 -569 -155 -160
-311 -233 -449 -208 -34 7 -83 22 -109 35 -63 33 -184 130 -242 196 -92 104
-168 301 -201 519 l-14 95 67 70 c37 39 82 91 101 118 39 55 34 54 200 10 86
-24 193 -41 163 -27 -7 3 -13 13 -13 22 0 15 2 15 10 2 5 -8 10 -10 10 -3 0
18 -57 61 -98 73 -20 6 -74 16 -119 23 -50 7 -83 16 -83 23 0 6 19 49 42 95
67 135 201 247 397 330 89 38 105 37 135 -8z m-843 -6 c-10 -9 -11 -8 -5 6 3
10 9 15 12 12 3 -3 0 -11 -7 -18z m1489 -199 c60 -188 68 -218 76 -263 16 -99
109 -437 146 -530 11 -27 26 -66 33 -85 8 -19 30 -73 49 -120 60 -146 152
-411 179 -515 29 -110 48 -242 46 -320 -1 -36 -5 -21 -14 56 -17 140 -38 238
-76 356 -34 107 -91 252 -114 295 -24 42 -144 366 -164 443 -66 246 -93 354
-116 462 -14 67 -45 181 -68 253 -24 72 -38 125 -31 116 6 -9 30 -75 54 -148z
m986 74 c-17 -16 -18 -16 -5 5 7 12 15 20 18 17 3 -2 -3 -12 -13 -22z m-2295
1 c-5 -10 -17 -27 -26 -38 -16 -19 -16 -19 -4 5 13 27 29 50 36 50 2 0 -1 -8
-6 -17z m2442 -28 c-3 -9 -8 -14 -10 -11 -3 3 -2 9 2 15 9 16 15 13 8 -4z
m-38 -62 c-19 -30 -175 -213 -182 -213 -2 0 36 48 83 108 48 59 92 115 98 124
5 9 12 15 14 13 3 -2 -3 -17 -13 -32z m-1530 -23 c10 -11 16 -20 13 -20 -3 0
-13 9 -23 20 -10 11 -16 20 -13 20 3 0 13 -9 23 -20z m1285 -40 c-11 -22 -23
-40 -25 -40 -3 0 4 18 15 40 11 22 23 40 25 40 3 0 -4 -18 -15 -40z m-1220
-36 c0 -2 -9 0 -20 6 -11 6 -20 13 -20 16 0 2 9 0 20 -6 11 -6 20 -13 20 -16z
m70 -95 c33 -34 53 -59 48 -59 -2 0 -28 26 -58 57 -30 31 -46 50 -35 42 11 -7
31 -26 45 -40z m21 34 c13 -16 12 -17 -3 -4 -17 13 -22 21 -14 21 2 0 10 -8
17 -17z m2600 -10 c13 -16 12 -17 -3 -4 -10 7 -18 15 -18 17 0 8 8 3 21 -13z
m-2432 -187 c32 -36 50 -67 51 -86 0 -8 -12 5 -26 30 -14 25 -53 74 -87 110
-50 52 -52 56 -13 20 27 -25 61 -58 75 -74z m933 23 c-35 -32 -61 -62 -58 -67
3 -5 -1 -9 -9 -9 -8 0 -15 2 -15 5 0 10 135 141 140 135 3 -3 -24 -31 -58 -64z
m-1535 19 c-3 -8 -6 -5 -6 6 -1 11 2 17 5 13 3 -3 4 -12 1 -19z m1457 -138
c-6 -6 -10 -2 -11 12 -2 16 1 18 10 9 7 -7 8 -14 1 -21z m-904 -122 c21 -42
22 -50 10 -73 -7 -14 -28 -34 -47 -45 l-33 -19 5 52 c3 29 7 84 10 122 5 88 5
87 19 45 6 -19 23 -56 36 -82z m40 48 c15 -46 15 -153 1 -214 -15 -59 -51 -95
-108 -107 -30 -6 -33 -4 -33 18 0 53 12 88 29 85 10 -2 35 17 59 42 35 37 42
52 42 85 -1 22 -7 48 -15 59 -9 12 -12 30 -8 49 4 21 3 28 -5 23 -6 -4 -9 -14
-6 -24 5 -14 3 -14 -10 2 -12 15 -13 23 -4 33 15 18 43 -7 58 -51z m962 -26
c9 0 9 3 0 12 -7 7 -12 16 -12 22 0 5 3 6 7 3 3 -4 13 -1 21 6 13 10 15 9 9
-5 -4 -12 -2 -18 8 -18 24 0 17 -14 -14 -28 -60 -27 -49 -111 20 -157 41 -26
59 -58 59 -101 0 -36 -22 -30 -54 16 l-17 25 7 -29 c5 -22 4 -28 -7 -24 -23 8
-57 66 -68 119 -14 66 -14 169 0 169 6 0 8 7 5 16 -3 9 -3 21 1 27 4 7 10 -2
15 -21 5 -18 14 -32 20 -32z m1332 8 c-4 -6 -3 -9 2 -5 5 3 17 -1 28 -8 15
-12 16 -18 7 -47 -6 -19 -25 -50 -41 -69 l-31 -34 5 65 c3 36 7 74 10 85 2 11
5 24 5 28 1 5 6 5 11 2 6 -4 7 -11 4 -17z m-3639 -73 c7 -64 -5 -87 -34 -61
-11 10 -27 33 -36 52 -16 33 -15 34 11 59 35 33 51 20 59 -50z m2370 -27 c8
-64 2 -70 -40 -36 -24 18 -27 26 -22 61 11 82 51 66 62 -25z m1365 32 c20 -38
-42 -198 -73 -187 -7 2 -11 11 -9 19 1 8 -7 23 -17 32 -19 17 -18 19 29 78 27
34 47 65 44 70 -3 4 -1 8 5 8 6 0 15 -9 21 -20z m-3816 -32 c27 -48 67 -88 87
-88 32 0 53 -102 23 -114 -26 -10 -34 -7 -34 12 0 9 -5 24 -10 32 -8 13 -11
12 -24 -5 -14 -19 -16 -17 -45 46 -35 78 -45 113 -37 134 8 23 20 18 40 -17z
m3703 -100 c18 -23 21 -57 10 -88 -13 -35 -17 -36 -46 -12 -21 16 -21 20 -10
65 13 47 28 58 46 35z m-3646 -118 c5 0 -1 -12 -15 -26 -36 -39 -52 -105 -37
-154 22 -74 86 -91 146 -39 43 38 49 15 8 -31 -76 -84 -193 -18 -193 107 0 21
6 49 14 63 7 14 24 45 37 70 16 31 25 40 27 28 2 -10 8 -18 13 -18z m3749 -50
c38 -76 32 -151 -16 -201 -22 -23 -36 -29 -72 -29 -36 0 -49 5 -71 29 -42 45
-64 136 -41 171 7 11 10 3 10 -28 0 -52 32 -119 65 -134 30 -14 69 -4 95 24
39 42 20 157 -33 199 -13 11 -18 22 -13 34 6 17 9 16 32 -6 14 -13 34 -40 44
-59z m-2385 -3 c59 -118 3 -254 -96 -232 -32 7 -92 73 -84 93 2 6 0 23 -5 37
-6 16 -5 36 2 57 15 45 30 60 18 17 -10 -34 -5 -90 11 -121 30 -57 83 -64 123
-17 36 43 35 99 -3 171 -29 54 -31 79 -5 57 7 -6 24 -34 39 -62z m995 64 c0
-5 -8 -12 -17 -15 -20 -7 -53 -96 -53 -142 0 -40 34 -92 65 -100 15 -4 38 -1
51 5 22 10 25 9 22 -6 -4 -24 -41 -41 -78 -35 -67 10 -109 120 -80 208 16 49
90 118 90 85z m2058 -361 c75 -115 168 -257 205 -315 38 -58 108 -147 155
-197 52 -55 71 -80 49 -63 -68 51 -195 202 -295 352 -148 221 -273 433 -257
433 3 0 67 -94 143 -210z m-4286 178 c-7 -7 -12 -8 -12 -2 0 14 12 26 19 19 2
-3 -1 -11 -7 -17z m4014 -289 c-18 -86 -67 -193 -131 -287 -53 -78 -103 -139
-86 -105 6 12 17 28 23 35 24 25 58 77 58 87 0 6 13 32 28 58 61 103 109 261
114 371 1 36 3 32 5 -19 2 -36 -3 -99 -11 -140z m-4461 -29 c3 -14 -6 4 -21
40 -14 36 -28 87 -30 115 -4 43 -1 38 21 -40 14 -49 28 -101 30 -115z m-966
169 c-13 -12 -74 -59 -136 -105 -178 -135 -259 -230 -359 -421 -26 -51 -50
-91 -52 -89 -2 3 24 58 57 123 91 178 207 304 421 458 75 54 114 73 69 34z
m1019 -274 c-3 -3 -9 2 -12 12 -6 14 -5 15 5 6 7 -7 10 -15 7 -18z m21 -55 c0
-10 -3 -8 -9 5 -12 27 -12 43 0 25 5 -8 9 -22 9 -30z m27 -77 c3 -12 1 -30 -6
-40 -10 -15 -10 -14 -5 10 4 21 3 27 -6 21 -9 -5 -10 -2 -6 10 4 10 2 27 -4
39 -10 22 -10 22 6 2 9 -11 18 -30 21 -42z m4051 -130 c-8 -15 -25 -61 -37
-101 -23 -80 -35 -93 -19 -23 11 51 63 174 67 161 2 -5 -3 -21 -11 -37z
m-3557 -161 c32 -76 65 -190 57 -198 -2 -3 -12 24 -22 58 -9 35 -37 108 -61
163 -24 55 -35 89 -24 75 10 -14 33 -58 50 -98z m-2136 -7 c-34 -93 -54 -199
-55 -298 l-2 -82 -9 70 c-15 106 4 213 61 339 31 70 34 52 5 -29z m6747 58
c13 -16 12 -17 -3 -4 -10 7 -18 15 -18 17 0 8 8 3 21 -13z m-6790 -44 c-9 -23
-10 -23 -10 -2 -1 12 2 30 6 40 6 15 8 15 11 2 1 -8 -2 -26 -7 -40z m3652 -39
c101 -28 233 -98 289 -152 27 -26 61 -74 76 -105 24 -52 27 -69 26 -168 0 -87
-6 -131 -27 -210 -29 -104 -142 -465 -157 -500 -10 -23 -26 -75 -39 -125 -8
-29 -9 -31 -10 -10 -1 18 -4 21 -10 11 -5 -8 -11 33 -16 105 -17 302 -79 726
-140 959 -29 111 -48 171 -61 193 -18 27 -16 27 69 2z m2147 -151 c12 -23 61
-90 108 -148 136 -168 191 -319 178 -489 -9 -115 -21 -111 -22 6 0 177 -50
304 -176 452 -35 41 -73 89 -85 105 -31 46 -53 123 -52 184 l1 56 13 -61 c7
-34 23 -81 35 -105z m-883 -351 c-2 -18 -4 -4 -4 32 0 36 2 50 4 33 2 -18 2
-48 0 -65z m1202 -143 c-1 -37 -1 -36 -14 20 -7 33 -16 69 -19 80 -4 11 3 2
14 -20 11 -22 19 -58 19 -80z m-1155 -34 c14 -34 39 -85 56 -113 17 -27 26
-47 21 -43 -34 20 -122 223 -120 274 1 18 4 14 9 -15 5 -22 20 -68 34 -103z
m2425 -82 c2 -154 -53 -308 -144 -405 l-46 -49 33 45 c84 115 137 286 139 444
1 123 17 93 18 -35z m-5249 48 c-11 -25 -25 -49 -31 -52 -5 -4 3 18 18 49 32
66 42 68 13 3z m4755 -171 c-33 -164 -105 -270 -221 -327 -36 -18 -67 -29 -70
-26 -3 3 11 13 31 22 19 10 60 44 90 77 92 102 157 253 173 402 l7 71 3 -69
c2 -39 -4 -106 -13 -150z m-768 162 c-3 -8 -6 -5 -6 6 -1 11 2 17 5 13 3 -3 4
-12 1 -19z m-4051 -105 c-8 -15 -15 -25 -16 -21 0 12 23 58 27 54 3 -2 -2 -17
-11 -33z m5184 -53 c-19 -103 -48 -183 -89 -247 -43 -67 -84 -103 -152 -132
-82 -35 -97 -35 -43 2 123 85 212 207 262 360 15 47 28 83 30 82 2 -2 -2 -31
-8 -65z m-5223 -62 c-3 -8 -6 -5 -6 6 -1 11 2 17 5 13 3 -3 4 -12 1 -19z
m4060 -10 c-3 -8 -6 -5 -6 6 -1 11 2 17 5 13 3 -3 4 -12 1 -19z m-88 -135
c-44 -57 -189 -172 -189 -149 0 3 12 12 28 20 15 8 59 44 97 80 72 67 87 79
64 49z m-3982 -35 c-3 -8 -6 -5 -6 6 -1 11 2 17 5 13 3 -3 4 -12 1 -19z
m-1024 -15 c18 -9 46 -19 62 -23 24 -4 31 -12 33 -34 l4 -28 -41 23 c-45 25
-111 78 -98 79 4 0 22 -8 40 -17z m4707 -157 c0 -3 -13 -11 -30 -20 -16 -8
-30 -11 -30 -6 0 7 23 18 58 29 1 1 2 -1 2 -3z m-4030 -26 c0 -5 28 -22 62
-39 64 -33 66 -37 8 -21 -20 5 -51 26 -70 46 -20 19 -27 32 -17 29 9 -4 17
-11 17 -15z m3563 -27 c-7 -2 -19 -2 -25 0 -7 3 -2 5 12 5 14 0 19 -2 13 -5z
m196 -14 c-16 -10 -109 -10 -154 0 -18 4 9 7 69 8 61 1 94 -2 85 -8z m664 -94
c-3 -9 -8 -14 -10 -11 -3 3 -2 9 2 15 9 16 15 13 8 -4z m-4613 -80 c0 -5 -5
-3 -10 5 -5 8 -10 20 -10 25 0 6 5 3 10 -5 5 -8 10 -19 10 -25z m4571 -190
c-4 -110 -9 -182 -10 -160 -1 22 -6 85 -10 140 -9 105 -5 168 10 159 5 -3 8 3
7 13 -2 27 1 57 6 52 2 -2 1 -94 -3 -204z m-4497 49 c3 -8 2 -12 -4 -9 -6 3
-10 10 -10 16 0 14 7 11 14 -7z m2416 -45 c0 -16 -4 -29 -10 -29 -5 0 -10 16
-10 36 0 21 4 33 10 29 6 -3 10 -19 10 -36z m2035 -144 c4 -60 8 -137 9 -170
l3 -60 -60 -28 c-33 -15 -61 -26 -62 -25 -1 2 -10 32 -19 67 -31 112 -27 137
45 276 l64 125 7 -38 c3 -20 9 -86 13 -147z m-2038 48 c-3 -10 -5 -4 -5 12 0
17 2 24 5 18 2 -7 2 -21 0 -30z m-2351 -29 c2 -28 0 -34 -8 -24 -7 11 -8 9 -3
-10 14 -52 20 -210 9 -214 -7 -3 -9 9 -7 35 2 21 0 39 -4 39 -4 0 -9 53 -10
117 -2 87 0 114 8 106 7 -7 13 -29 15 -49z m113 -34 c40 -68 44 -82 37 -142
-7 -69 -25 -113 -26 -63 0 38 -19 108 -59 215 l-31 85 32 -35 c18 -20 39 -47
47 -60z m4356 -180 c-3 -5 -11 -10 -16 -10 -6 0 -7 5 -4 10 3 6 11 10 16 10 6
0 7 -4 4 -10z m-4458 -92 c-2 -13 -4 -5 -4 17 -1 22 1 32 4 23 2 -10 2 -28 0
-40z m-1482 -38 c3 -5 1 -10 -4 -10 -6 0 -11 5 -11 10 0 6 2 10 4 10 3 0 8 -4
11 -10z m95 -20 c0 -5 -4 -10 -10 -10 -5 0 -10 5 -10 10 0 6 5 10 10 10 6 0
10 -4 10 -10z m42 -52 c-12 -12 -35 -1 -27 12 3 5 13 6 21 3 10 -4 12 -9 6
-15z m-67 2 c3 -6 -1 -7 -9 -4 -18 7 -21 14 -7 14 6 0 13 -4 16 -10z m789
-165 c-4 -8 -8 -15 -10 -15 -2 0 -4 7 -4 15 0 8 4 15 10 15 5 0 7 -7 4 -15z
m6936 -165 c0 -5 -4 -10 -10 -10 -5 0 -10 5 -10 10 0 6 5 10 10 10 6 0 10 -4
10 -10z m-6813 -134 c23 -26 43 -52 43 -57 0 -5 7 -9 15 -9 14 0 20 -17 16
-47 -1 -7 4 -13 11 -13 8 0 6 -5 -4 -11 -10 -5 -18 -18 -18 -27 0 -14 2 -15
10 -2 7 11 11 9 19 -13 6 -16 11 -35 11 -44 0 -14 29 -73 41 -83 3 -3 19 -25
34 -50 31 -50 44 -62 59 -53 5 4 6 1 1 -7 -4 -7 -4 -15 1 -19 5 -3 22 -21 37
-39 23 -29 27 -43 27 -98 l0 -64 -30 0 c-24 0 -33 6 -42 28 -27 67 -152 318
-177 355 -39 58 -81 193 -82 260 0 9 -3 17 -6 17 -3 0 -12 -8 -20 -17 -13 -16
-13 -16 -3 5 9 18 8 22 -5 22 -21 0 -40 51 -23 61 9 6 18 -1 27 -19 8 -15 34
-49 58 -76z m127 -242 c3 -8 2 -12 -4 -9 -6 3 -10 10 -10 16 0 14 7 11 14 -7z
m-386 -251 c-10 -2 -18 -8 -18 -12 0 -3 -11 -8 -25 -9 -16 -1 -25 3 -25 13 0
11 11 15 43 14 23 -1 34 -3 25 -6z m317 -9 c18 -18 16 -36 -6 -42 -11 -4 -11
-2 -2 8 13 14 2 31 -27 43 -12 4 -12 6 2 6 9 1 24 -6 33 -15z m-120 -4 c3 -5
1 -10 -4 -10 -6 0 -11 5 -11 10 0 6 2 10 4 10 3 0 8 -4 11 -10z m175 -25 c0
-8 6 -15 14 -15 18 0 29 -27 14 -36 -6 -4 -8 -3 -5 2 3 6 -8 19 -24 29 -32 22
-37 35 -14 35 8 0 15 -7 15 -15z m-9 -40 c11 6 11 5 2 -5 -12 -14 -33 -6 -33
13 0 8 3 7 9 -2 5 -8 14 -10 22 -6z m-719 -102 c35 -15 86 -42 113 -61 60 -41
57 -40 -65 19 -52 25 -106 51 -120 57 -17 7 -20 11 -8 11 9 1 45 -11 80 -26z
m907 -198 c-1 -36 -5 -65 -10 -65 -5 0 -9 12 -9 28 0 32 11 102 16 102 2 0 3
-29 3 -65z m-59 -6 c0 -5 -9 -9 -20 -9 -22 0 -23 1 -14 24 5 13 9 14 20 5 8
-6 14 -15 14 -20z m4869 -76 c0 -10 5 -51 11 -92 6 -40 9 -74 8 -75 -2 -1 -23
-15 -48 -32 -25 -17 -73 -45 -107 -62 -55 -28 -86 -52 -67 -52 11 0 126 62
172 93 24 16 46 26 49 24 3 -3 6 -19 8 -35 1 -16 5 -34 9 -41 5 -7 6 -14 5
-16 -13 -13 -116 -45 -144 -45 -41 0 -71 -10 -56 -19 6 -4 -8 -7 -32 -6 -52 1
-53 13 -11 76 41 61 72 165 79 269 6 74 9 86 25 86 11 0 16 -5 12 -14 -3 -8 8
-1 23 14 l28 28 18 -41 c10 -23 18 -50 18 -60z m-4842 -65 c-2 -18 -4 -4 -4
32 0 36 2 50 4 33 2 -18 2 -48 0 -65z m-20 30 c-3 -8 -6 -5 -6 6 -1 11 2 17 5
13 3 -3 4 -12 1 -19z m-340 -14 c-3 -3 -12 -4 -19 -1 -8 3 -5 6 6 6 11 1 17
-2 13 -5z m53 -19 c19 -14 29 -25 23 -25 -7 0 -15 5 -19 11 -3 6 -14 9 -23 6
-11 -3 -17 2 -17 14 0 11 1 19 1 19 1 0 16 -11 35 -25z m347 -17 c-3 -7 -5 -2
-5 12 0 14 2 19 5 13 2 -7 2 -19 0 -25z m-540 -30 c-3 -8 -6 -5 -6 6 -1 11 2
17 5 13 3 -3 4 -12 1 -19z m353 -3 c14 -8 21 -14 15 -14 -5 0 -21 6 -35 14
-14 8 -20 14 -15 14 6 0 21 -6 35 -14z m219 -70 c0 -5 -4 -3 -9 5 -5 8 -9 22
-9 30 0 16 17 -16 18 -35z m3 -29 c-3 -5 3 -15 13 -23 11 -7 16 -13 12 -13 -5
0 -77 37 -84 44 -2 2 12 2 31 2 19 -1 32 -5 28 -10z m72 -102 c3 -8 2 -12 -4
-9 -6 3 -10 10 -10 16 0 14 7 11 14 -7z m47 -60 c13 -14 17 -23 9 -19 -13 5
-46 45 -37 45 2 0 14 -11 28 -26z"/>
<path d="M8805 8889 l-30 -19 29 0 c16 0 26 3 23 7 -4 3 -2 12 4 20 15 17 11
16 -26 -8z"/>
<path d="M4458 8366 c-14 -32 -5 -54 27 -62 31 -8 55 10 55 40 0 49 -62 65
-82 22z"/>
<path d="M5391 8381 c-7 -5 -13 -21 -13 -36 0 -43 45 -61 76 -29 42 42 -11 97
-63 65z"/>
<path d="M6052 8378 c-7 -7 -12 -35 -12 -64 l0 -51 -50 5 c-111 10 -173 -64
-155 -184 13 -89 88 -137 169 -109 25 9 42 11 44 5 5 -15 48 -12 60 3 12 14
18 379 7 397 -9 14 -48 13 -63 -2z m-34 -198 c45 -42 19 -140 -37 -140 -39 0
-63 31 -65 81 0 32 5 45 23 60 30 24 52 24 79 -1z"/>
<path d="M3636 8361 c-32 -36 7 -71 80 -71 l34 0 0 -148 c0 -155 4 -172 45
-172 41 0 45 17 45 172 l0 148 24 0 c55 0 86 12 92 36 12 48 -6 54 -161 54
-126 0 -144 -2 -159 -19z"/>
<path d="M5078 8368 c-13 -11 -17 -46 -22 -185 -7 -182 -2 -213 34 -213 45 0
50 9 50 86 l0 74 74 0 c81 0 110 15 104 54 -3 23 -45 34 -130 35 -48 1 -48 1
-48 36 0 31 3 35 33 40 17 3 59 6 92 8 54 2 60 4 63 25 7 44 -12 52 -127 52
-71 0 -113 -4 -123 -12z"/>
<path d="M4730 8272 c-14 -2 -30 -8 -37 -14 -7 -6 -18 -5 -31 3 -11 7 -30 9
-45 5 l-27 -6 0 -140 0 -140 25 -6 c49 -12 55 -2 55 94 0 101 12 122 68 122
18 0 33 -1 33 -2 1 -2 4 -50 8 -108 l6 -105 35 0 35 0 3 105 c3 103 -6 148
-33 170 -19 16 -66 26 -95 22z"/>
<path d="M5623 8260 c-27 -16 -33 -17 -33 -5 0 18 -51 20 -68 3 -8 -8 -12 -53
-12 -138 0 -132 5 -150 45 -150 37 0 45 19 45 111 0 79 2 89 22 103 58 41 82
11 88 -113 l5 -96 29 -3 c16 -2 32 2 37 10 14 22 10 195 -5 233 -15 36 -59 65
-98 65 -13 0 -38 -9 -55 -20z"/>
<path d="M6255 8265 c-47 -17 -70 -45 -84 -102 -12 -45 -6 -92 16 -136 19 -39
93 -71 145 -64 45 6 88 31 88 52 0 22 -31 47 -49 39 -53 -22 -106 -15 -114 16
-5 18 1 19 81 22 83 3 87 4 96 29 12 36 -12 107 -44 131 -35 26 -87 31 -135
13z m99 -84 l20 -21 -62 0 c-66 0 -71 3 -47 30 20 22 62 17 89 -9z"/>
<path d="M6587 8260 c-21 -17 -26 -18 -31 -5 -7 19 -50 20 -65 1 -8 -9 -11
-57 -9 -147 l3 -134 35 0 35 0 5 98 c6 109 10 117 72 117 27 0 40 6 48 20 15
28 4 56 -23 64 -34 9 -42 7 -70 -14z"/>
<path d="M3967 8263 c-13 -12 -7 -41 29 -150 42 -125 55 -143 99 -143 37 0 53
25 75 118 14 61 22 58 40 -13 23 -86 36 -105 75 -105 30 0 37 5 53 38 32 62
74 200 70 229 -2 23 -8 29 -34 31 -36 4 -42 -8 -70 -121 -9 -38 -20 -65 -24
-60 -4 4 -15 40 -25 78 -23 93 -30 105 -64 105 -40 0 -56 -24 -76 -113 -20
-87 -24 -85 -50 18 -9 39 -22 76 -27 83 -11 13 -60 17 -71 5z"/>
<path d="M4480 8263 c-26 -10 -30 -26 -30 -141 0 -124 8 -152 45 -152 37 0 45
28 45 159 0 109 -2 121 -19 131 -11 5 -21 10 -23 9 -2 0 -10 -3 -18 -6z"/>
<path d="M5391 8261 c-22 -14 -17 -271 5 -288 17 -12 44 -7 56 11 4 6 8 68 8
138 0 116 -2 128 -19 138 -24 12 -32 12 -50 1z"/>
<path d="M5272 6260 c0 -14 2 -19 5 -12 2 6 2 18 0 25 -3 6 -5 1 -5 -13z"/>
<path d="M5252 6140 c0 -19 2 -27 5 -17 2 9 2 25 0 35 -3 9 -5 1 -5 -18z"/>
<path d="M5236 6074 c-4 -14 -5 -28 -3 -31 3 -2 8 8 11 23 4 14 5 28 3 31 -3
2 -8 -8 -11 -23z"/>
<path d="M5215 6000 c-4 -17 -5 -34 -2 -36 2 -3 7 10 11 27 3 18 4 34 2 36 -2
3 -7 -10 -11 -27z"/>
<path d="M5171 5854 c-17 -54 -29 -99 -27 -101 4 -4 30 65 50 136 27 94 10 67
-23 -35z"/>
<path d="M4548 4683 c7 -3 16 -2 19 1 4 3 -2 6 -13 5 -11 0 -14 -3 -6 -6z"/>
<path d="M3658 4623 c6 -2 18 -2 25 0 6 3 1 5 -13 5 -14 0 -19 -2 -12 -5z"/>
<path d="M6544 3778 c-4 -7 -3 -10 1 -5 5 4 17 -1 28 -10 19 -18 19 -17 6 5
-16 25 -25 28 -35 10z"/>
<path d="M7322 3575 c0 -16 2 -22 5 -12 2 9 2 23 0 30 -3 6 -5 -1 -5 -18z"/>
<path d="M7340 3558 c0 -49 5 -47 14 5 4 23 3 37 -4 37 -5 0 -10 -19 -10 -42z"/>
<path d="M5300 3544 c0 -8 5 -12 10 -9 6 4 8 11 5 16 -9 14 -15 11 -15 -7z"/>
<path d="M7312 3510 c0 -19 2 -27 5 -17 2 9 2 25 0 35 -3 9 -5 1 -5 -18z"/>
<path d="M7097 3492 c-11 -11 -17 -34 -16 -58 l1 -39 7 35 c4 19 13 45 20 58
14 27 10 28 -12 4z"/>
<path d="M7301 3449 c0 -15 -3 -42 -6 -60 l-5 -34 11 34 c5 18 8 45 6 60 l-4
26 -2 -26z"/>
<path d="M7330 3450 c0 -5 5 -10 10 -10 6 0 10 5 10 10 0 6 -4 10 -10 10 -5 0
-10 -4 -10 -10z"/>
<path d="M7194 3436 c-3 -8 -4 -23 -2 -33 3 -11 6 -6 9 15 6 34 2 42 -7 18z"/>
<path d="M7482 3420 c0 -14 2 -19 5 -12 2 6 2 18 0 25 -3 6 -5 1 -5 -13z"/>
<path d="M2920 3404 c0 -14 62 -165 66 -161 4 3 -54 158 -62 166 -2 2 -4 0 -4
-5z"/>
<path d="M3235 3390 c-3 -5 -1 -10 4 -10 6 0 11 5 11 10 0 6 -2 10 -4 10 -3 0
-8 -4 -11 -10z"/>
<path d="M3490 3378 c-12 -22 -12 -22 6 -6 10 10 15 20 12 24 -4 3 -12 -5 -18
-18z"/>
<path d="M7071 3374 c0 -11 3 -14 6 -6 3 7 2 16 -1 19 -3 4 -6 -2 -5 -13z"/>
<path d="M7182 3360 c0 -14 2 -19 5 -12 2 6 2 18 0 25 -3 6 -5 1 -5 -13z"/>
<path d="M3041 3350 c0 -8 4 -22 9 -30 12 -18 12 -2 0 25 -6 13 -9 15 -9 5z"/>
<path d="M3281 3344 c0 -11 3 -14 6 -6 3 7 2 16 -1 19 -3 4 -6 -2 -5 -13z"/>
<path d="M3445 3350 c-3 -6 1 -7 9 -4 18 7 21 14 7 14 -6 0 -13 -4 -16 -10z"/>
<path d="M3410 3340 c-13 -8 -12 -10 3 -10 9 0 17 5 17 10 0 12 -1 12 -20 0z"/>
<path d="M7275 3325 c-4 -16 -17 -60 -30 -97 -14 -39 -20 -70 -14 -73 5 -4 9
2 9 11 0 10 12 50 26 91 14 40 24 78 21 85 -2 7 -8 0 -12 -17z"/>
<path d="M7311 3314 c0 -11 3 -14 6 -6 3 7 2 16 -1 19 -3 4 -6 -2 -5 -13z"/>
<path d="M5360 3296 c0 -9 5 -16 10 -16 6 0 10 4 10 9 0 6 -4 13 -10 16 -5 3
-10 -1 -10 -9z"/>
<path d="M6831 3264 c0 -11 3 -14 6 -6 3 7 2 16 -1 19 -3 4 -6 -2 -5 -13z"/>
<path d="M3080 3266 c0 -12 29 -76 34 -76 3 0 -2 17 -11 38 -16 38 -23 50 -23
38z"/>
<path d="M3361 3254 c0 -11 3 -14 6 -6 3 7 2 16 -1 19 -3 4 -6 -2 -5 -13z"/>
<path d="M7470 3259 c0 -5 5 -7 10 -4 6 3 10 8 10 11 0 2 -4 4 -10 4 -5 0 -10
-5 -10 -11z"/>
<path d="M5370 3220 c0 -22 3 -40 8 -40 4 0 6 18 4 40 -2 22 -6 40 -8 40 -2 0
-4 -18 -4 -40z"/>
<path d="M6962 3240 c0 -14 2 -19 5 -12 2 6 2 18 0 25 -3 6 -5 1 -5 -13z"/>
<path d="M7151 3244 c0 -11 3 -14 6 -6 3 7 2 16 -1 19 -3 4 -6 -2 -5 -13z"/>
<path d="M3011 3240 c0 -8 9 -33 20 -55 10 -22 16 -29 13 -16 -10 37 -33 88
-33 71z"/>
<path d="M7036 3214 c-4 -14 -5 -28 -3 -31 3 -2 8 8 11 23 4 14 5 28 3 31 -3
2 -8 -8 -11 -23z"/>
<path d="M3372 3210 c0 -14 2 -19 5 -12 2 6 2 18 0 25 -3 6 -5 1 -5 -13z"/>
<path d="M6726 3163 c-3 -21 -5 -56 -5 -78 1 -26 5 -14 10 34 9 79 6 108 -5
44z"/>
<path d="M7129 3163 c-5 -14 -8 -34 -7 -42 2 -9 9 3 15 27 12 47 8 56 -8 15z"/>
<path d="M7261 3164 c0 -11 3 -14 6 -6 3 7 2 16 -1 19 -3 4 -6 -2 -5 -13z"/>
<path d="M6941 3154 c0 -11 3 -14 6 -6 3 7 2 16 -1 19 -3 4 -6 -2 -5 -13z"/>
<path d="M6806 3113 c-15 -118 -17 -138 -8 -128 9 10 26 175 18 175 -2 0 -7
-21 -10 -47z"/>
<path d="M7210 3139 c0 -5 -12 -36 -26 -67 -50 -107 -64 -145 -60 -150 3 -3
10 6 15 19 5 13 22 53 39 89 32 68 49 120 38 120 -3 0 -6 -5 -6 -11z"/>
<path d="M7011 3103 c-6 -21 -10 -47 -10 -58 1 -11 7 5 15 35 15 62 11 82 -5
23z"/>
<path d="M3060 3125 c0 -2 20 -36 45 -74 25 -38 45 -73 45 -78 0 -5 7 -18 15
-29 15 -19 15 -19 9 1 -7 25 -27 68 -34 75 -3 3 -21 29 -39 58 -30 47 -41 60
-41 47z"/>
<path d="M3151 3095 c12 -19 23 -35 26 -35 2 0 3 3 1 8 -22 45 -33 62 -39 62
-5 0 1 -16 12 -35z"/>
<path d="M6932 3110 c0 -14 2 -19 5 -12 2 6 2 18 0 25 -3 6 -5 1 -5 -13z"/>
<path d="M7107 3086 c-4 -10 -5 -21 -2 -24 9 -9 17 6 13 25 -3 17 -4 17 -11
-1z"/>
<path d="M2892 3070 c0 -14 2 -19 5 -12 2 6 2 18 0 25 -3 6 -5 1 -5 -13z"/>
<path d="M5392 3065 c0 -16 2 -22 5 -12 2 9 2 23 0 30 -3 6 -5 -1 -5 -18z"/>
<path d="M6905 2983 c-18 -100 -33 -384 -20 -371 4 4 7 38 6 75 -2 75 14 235
31 326 6 32 9 60 6 62 -3 3 -13 -39 -23 -92z"/>
<path d="M3412 3035 c0 -16 2 -22 5 -12 2 9 2 23 0 30 -3 6 -5 -1 -5 -18z"/>
<path d="M3191 3030 c14 -31 19 -36 19 -24 0 6 -7 19 -16 30 -14 18 -14 18 -3
-6z"/>
<path d="M6709 2959 c-2 -101 -2 -75 6 -194 3 -55 8 -102 11 -104 5 -5 -7 372
-12 378 -2 2 -5 -34 -5 -80z"/>
<path d="M7072 2958 c-26 -102 -39 -218 -24 -218 6 0 13 26 17 58 10 84 33
221 40 232 3 6 2 10 -2 10 -5 0 -19 -37 -31 -82z"/>
<path d="M5393 2995 c0 -22 2 -30 4 -17 2 12 2 30 0 40 -3 9 -5 -1 -4 -23z"/>
<path d="M6981 2978 c-7 -24 -14 -113 -16 -198 l-3 -155 8 130 c5 71 14 158
20 192 14 74 8 93 -9 31z"/>
<path d="M2825 2990 c2 -14 5 -28 5 -32 0 -5 5 -8 10 -8 6 0 10 12 10 26 0 14
-4 23 -9 20 -5 -4 -12 0 -15 6 -4 7 -4 2 -1 -12z"/>
<path d="M3422 2965 c0 -16 2 -22 5 -12 2 9 2 23 0 30 -3 6 -5 -1 -5 -18z"/>
<path d="M3512 2960 c0 -14 2 -19 5 -12 2 6 2 18 0 25 -3 6 -5 1 -5 -13z"/>
<path d="M6785 2960 c-3 -5 -1 -10 4 -10 6 0 11 5 11 10 0 6 -2 10 -4 10 -3 0
-8 -4 -11 -10z"/>
<path d="M3257 2954 c-4 -4 -3 -12 2 -18 8 -10 42 -168 40 -184 -4 -26 2 -134
8 -129 10 11 3 231 -7 241 -6 6 -10 19 -10 31 -1 26 -24 68 -33 59z"/>
<path d="M3314 2942 c24 -74 37 -147 38 -209 1 -40 5 -70 9 -68 14 9 -1 169
-22 232 -11 35 -23 63 -25 63 -3 0 -3 -8 0 -18z"/>
<path d="M3466 2888 c3 -43 10 -90 14 -105 10 -32 2 64 -11 137 -6 33 -7 24
-3 -32z"/>
<path d="M6248 2953 c6 -2 18 -2 25 0 6 3 1 5 -13 5 -14 0 -19 -2 -12 -5z"/>
<path d="M4145 2940 c-16 -7 -17 -9 -3 -9 9 -1 20 4 23 9 7 11 7 11 -20 0z"/>
<path d="M6373 2943 c9 -2 25 -2 35 0 9 3 1 5 -18 5 -19 0 -27 -2 -17 -5z"/>
<path d="M5401 2769 c1 -96 4 -163 9 -149 7 25 2 311 -6 319 -2 2 -4 -74 -3
-170z"/>
<path d="M6488 2933 c7 -3 16 -2 19 1 4 3 -2 6 -13 5 -11 0 -14 -3 -6 -6z"/>
<path d="M3190 2915 c0 -8 5 -15 10 -15 6 0 10 -12 10 -27 1 -16 7 -39 15 -53
13 -22 14 -23 15 -5 0 27 -32 115 -42 115 -4 0 -8 -7 -8 -15z"/>
<path d="M3980 2922 c0 -4 16 -6 35 -4 19 2 35 6 35 8 0 2 -16 4 -35 4 -19 0
-35 -4 -35 -8z"/>
<path d="M6538 2923 c7 -3 16 -2 19 1 4 3 -2 6 -13 5 -11 0 -14 -3 -6 -6z"/>
<path d="M3432 2900 c0 -14 2 -19 5 -12 2 6 2 18 0 25 -3 6 -5 1 -5 -13z"/>
<path d="M3522 2900 c0 -14 2 -19 5 -12 2 6 2 18 0 25 -3 6 -5 1 -5 -13z"/>
<path d="M3913 2913 c9 -2 23 -2 30 0 6 3 -1 5 -18 5 -16 0 -22 -2 -12 -5z"/>
<path d="M6783 2850 c0 -41 2 -58 4 -37 2 20 2 54 0 75 -2 20 -4 3 -4 -38z"/>
<path d="M3853 2903 c9 -2 23 -2 30 0 6 3 -1 5 -18 5 -16 0 -22 -2 -12 -5z"/>
<path d="M3788 2893 c6 -2 18 -2 25 0 6 3 1 5 -13 5 -14 0 -19 -2 -12 -5z"/>
<path d="M3748 2865 c2 -14 6 -25 8 -25 2 0 4 11 4 25 0 14 -4 25 -9 25 -4 0
-6 -11 -3 -25z"/>
<path d="M3682 2873 c11 -3 18 -17 21 -41 l4 -37 1 43 c2 38 0 42 -20 41 -17
-1 -18 -3 -6 -6z"/>
<path d="M7127 2863 c-4 -3 -7 -31 -8 -62 -1 -43 -3 -50 -9 -31 -8 24 -8 23
-9 -7 -1 -23 4 -33 14 -33 11 0 15 12 16 43 0 23 2 54 4 70 4 28 3 31 -8 20z"/>
<path d="M7486 2851 c-4 -7 -5 -15 -2 -18 9 -9 19 4 14 18 -4 11 -6 11 -12 0z"/>
<path d="M3443 2810 c0 -25 2 -35 4 -22 2 12 2 32 0 45 -2 12 -4 2 -4 -23z"/>
<path d="M7512 2839 c-1 -9 -9 -22 -17 -29 -8 -7 -15 -18 -15 -24 0 -6 4 -5 9
3 7 11 9 11 13 0 9 -25 20 -2 15 33 -2 18 -5 26 -5 17z"/>
<path d="M3188 2781 c-1 -27 0 -47 5 -44 8 5 10 -10 7 -42 -1 -15 1 -17 10 -9
12 12 3 144 -10 144 -5 0 -10 -22 -12 -49z"/>
<path d="M3249 2759 c-3 -43 3 -102 12 -123 5 -13 7 7 5 57 -3 74 -14 118 -17
66z"/>
<path d="M7688 2773 c6 -2 18 -2 25 0 6 3 1 5 -13 5 -14 0 -19 -2 -12 -5z"/>
<path d="M3462 2690 c0 -70 1 -72 10 -33 5 26 5 54 -1 75 -8 28 -9 22 -9 -42z"/>
<path d="M6783 2675 c0 -33 2 -45 4 -27 2 18 2 45 0 60 -2 15 -4 0 -4 -33z"/>
<path d="M7520 2719 c0 -5 12 -12 28 -15 38 -9 139 -58 186 -90 62 -42 31 -8
-37 40 -56 39 -91 55 -154 69 -13 3 -23 1 -23 -4z"/>
<path d="M3532 2700 c0 -14 2 -19 5 -12 2 6 2 18 0 25 -3 6 -5 1 -5 -13z"/>
<path d="M7044 2696 c3 -12 6 -36 6 -55 0 -49 11 -32 16 26 4 41 2 50 -11 50
-12 0 -15 -6 -11 -21z"/>
<path d="M3177 2681 c-5 -25 -3 -39 8 -51 8 -9 12 -20 8 -23 -3 -4 -1 -7 5 -7
7 0 12 15 12 35 0 19 -4 35 -9 35 -5 0 -11 10 -13 23 -3 18 -5 15 -11 -12z"/>
<path d="M7120 2662 c0 -26 4 -41 10 -37 13 8 13 45 0 65 -7 11 -10 3 -10 -28z"/>
<path d="M7463 2688 c-13 -6 -23 -15 -23 -20 0 -8 17 -1 50 22 20 13 1 12 -27
-2z"/>
<path d="M7715 2690 c3 -5 11 -10 16 -10 6 0 7 5 4 10 -3 6 -11 10 -16 10 -6
0 -7 -4 -4 -10z"/>
<path d="M7152 2660 c0 -14 2 -19 5 -12 2 6 2 18 0 25 -3 6 -5 1 -5 -13z"/>
<path d="M6721 2634 c0 -11 3 -14 6 -6 3 7 2 16 -1 19 -3 4 -6 -2 -5 -13z"/>
<path d="M7450 2589 c0 -5 5 -7 10 -4 6 3 10 8 10 11 0 2 -4 4 -10 4 -5 0 -10
-5 -10 -11z"/>
<path d="M2635 2560 c-22 -4 5 -5 60 -2 55 2 102 6 104 8 7 7 -122 1 -164 -6z"/>
<path d="M5639 1981 c7 -5 10 -14 7 -20 -4 -6 0 -11 8 -11 9 0 16 9 16 20 0
14 -7 20 -22 20 -17 0 -19 -3 -9 -9z"/>
<path d="M3660 1896 c0 -8 4 -17 9 -20 5 -4 7 3 4 14 -6 23 -13 26 -13 6z"/>
<path d="M5730 1830 c0 -5 5 -10 10 -10 6 0 10 5 10 10 0 6 -4 10 -10 10 -5 0
-10 -4 -10 -10z"/>
<path d="M3710 1805 c14 -16 28 -34 31 -38 4 -5 10 -3 14 4 6 8 4 10 -5 4 -10
-6 -12 -4 -6 11 4 10 4 15 0 11 -4 -4 -19 3 -33 15 l-26 23 25 -30z"/>
<path d="M6486 1758 c7 -12 -64 -40 -79 -32 -9 5 -9 4 -1 -5 12 -13 60 2 97
31 18 13 17 14 -2 14 -11 0 -17 -4 -15 -8z"/>
<path d="M3790 1741 c0 -9 30 -24 36 -18 2 1 -6 8 -16 15 -11 7 -20 8 -20 3z"/>
<path d="M3848 1713 c7 -3 16 -2 19 1 4 3 -2 6 -13 5 -11 0 -14 -3 -6 -6z"/>
<path d="M4507 1703 c348 -2 918 -2 1265 0 348 1 64 2 -632 2 -696 0 -980 -1
-633 -2z"/>
<path d="M2321 9274 c-12 -19 -17 -32 -11 -29 5 3 10 -2 10 -12 1 -10 7 -29
14 -42 13 -23 13 -23 18 -3 3 11 1 25 -4 30 -5 5 -8 20 -5 33 4 22 4 22 6 -3
1 -30 10 -35 28 -17 8 8 6 20 -9 45 -11 19 -21 34 -23 34 -2 0 -12 -16 -24
-36z"/>
<path d="M2436 8422 c-3 -6 -1 -14 5 -17 15 -10 25 3 12 16 -7 7 -13 7 -17 1z"/>
<path d="M2142 7126 c-59 -32 -86 -122 -53 -177 l20 -34 -35 -58 c-19 -32 -34
-64 -34 -70 0 -19 58 -107 69 -107 6 0 -1 17 -15 37 -13 20 -23 41 -21 47 2 6
-3 17 -10 25 -12 11 -11 16 3 32 21 23 38 25 30 3 -4 -11 -2 -15 8 -11 7 3 26
-1 42 -9 15 -8 40 -13 54 -11 21 3 20 4 -7 6 -42 1 -49 15 -25 53 l20 31 -25
21 c-16 14 -25 33 -26 56 -2 34 -1 35 33 32 26 -2 31 0 20 7 -8 5 -11 14 -6
18 4 4 14 -1 22 -11 14 -19 14 -19 14 2 0 33 17 27 36 -13 15 -33 18 -34 30
-18 7 10 14 13 14 7 0 -5 -13 -28 -30 -50 l-29 -41 23 -44 c23 -43 46 -55 73
-36 7 5 14 1 17 -11 4 -10 18 -24 32 -30 35 -17 42 8 14 53 -12 19 -18 40 -14
46 4 8 3 9 -4 5 -15 -9 -33 28 -38 78 -5 49 -22 103 -42 134 -31 47 -110 66
-160 38z"/>
<path d="M2350 6945 c0 -5 5 -17 10 -25 5 -8 10 -10 10 -5 0 6 -5 17 -10 25
-5 8 -10 11 -10 5z"/>
<path d="M1127 6536 c-74 -27 -113 -87 -124 -188 -3 -35 -10 -68 -15 -75 -10
-13 -3 -33 12 -33 4 0 6 10 2 22 -3 13 -1 19 5 15 12 -8 15 -127 3 -146 -4 -8
-4 -24 0 -36 7 -18 4 -24 -14 -33 -21 -9 -22 -15 -16 -54 3 -23 14 -57 23 -75
19 -35 66 -83 82 -83 5 0 -1 7 -13 16 -12 8 -20 20 -16 25 3 5 0 8 -7 7 -16
-4 -50 61 -45 85 2 9 0 17 -5 17 -5 0 -9 7 -9 16 0 14 2 14 15 0 14 -13 45
-13 45 1 0 3 -6 3 -14 0 -13 -5 -26 12 -26 34 0 5 19 9 43 10 34 0 38 2 22 10
-17 8 -15 9 9 5 21 -3 35 3 52 22 13 14 24 29 24 34 0 6 -21 33 -46 61 -40 45
-45 55 -40 85 3 19 12 45 21 58 14 22 17 23 31 9 22 -21 40 -19 21 3 -28 31
-20 32 46 5 34 -14 72 -29 83 -33 33 -13 37 -66 7 -113 l-24 -37 24 -50 c16
-34 27 -46 34 -39 7 7 15 5 27 -6 22 -22 20 -41 -3 -41 -13 0 -17 5 -13 16 4
11 0 10 -16 -4 -29 -25 -28 -29 9 -24 l31 5 -6 -46 c-5 -44 -5 -44 12 14 12
40 14 62 7 67 -17 12 2 9 44 -8 29 -11 45 -27 62 -60 13 -24 27 -44 31 -44 4
0 5 28 1 63 -5 53 -12 68 -45 106 -23 27 -38 54 -38 70 l0 26 25 -30 c13 -16
29 -43 36 -58 8 -20 15 -25 22 -18 8 8 3 19 -15 38 -39 43 -55 81 -68 163 -6
41 -14 85 -16 98 -7 33 -73 102 -119 123 -47 22 -105 23 -158 5z m243 -205 c0
-5 -6 -16 -13 -23 -7 -7 -17 -22 -22 -33 -8 -18 -9 -17 -13 8 -2 16 2 35 9 43
13 16 39 19 39 5z"/>
<path d="M1100 6299 c0 -11 5 -17 10 -14 6 3 10 13 10 21 0 8 -4 14 -10 14 -5
0 -10 -9 -10 -21z"/>
<path d="M1206 6305 c4 -8 11 -15 16 -15 6 0 5 6 -2 15 -7 8 -14 15 -16 15 -2
0 -1 -7 2 -15z"/>
<path d="M1160 6230 c0 -5 4 -10 9 -10 6 0 13 5 16 10 3 6 -1 10 -9 10 -9 0
-16 -4 -16 -10z"/>
<path d="M1080 6050 c-8 -5 -11 -12 -7 -17 5 -4 13 -1 18 7 9 12 10 11 5 -4
-5 -13 -2 -17 8 -13 8 3 22 -1 33 -8 36 -28 118 -12 152 29 19 23 7 20 -35 -9
-20 -14 -49 -25 -65 -25 -15 0 -41 11 -57 25 -34 28 -32 28 -52 15z"/>
<path d="M1390 6026 c4 -4 16 -4 26 2 16 9 14 10 -8 9 -15 -1 -23 -6 -18 -11z"/>
<path d="M1331 5905 c0 -12 -6 -26 -12 -32 -8 -8 -8 -13 0 -18 14 -8 24 17 18
47 -4 20 -4 20 -6 3z"/>
<path d="M1337 2788 c6 -7 13 -20 16 -28 3 -9 6 -3 6 13 1 19 -4 27 -15 27
-12 0 -14 -4 -7 -12z"/>
<path d="M1378 2742 c-5 -17 12 -52 24 -52 11 0 5 50 -7 60 -9 8 -14 5 -17 -8z"/>
<path d="M1446 2735 c-4 -10 1 -15 16 -15 17 0 18 2 8 15 -7 8 -14 15 -15 15
-2 0 -5 -7 -9 -15z"/>
<path d="M2341 2574 c0 -11 3 -14 6 -6 3 7 2 16 -1 19 -3 4 -6 -2 -5 -13z"/>
<path d="M2321 2534 c0 -11 3 -14 6 -6 3 7 2 16 -1 19 -3 4 -6 -2 -5 -13z"/>
<path d="M2020 1930 c0 -5 5 -10 11 -10 5 0 7 5 4 10 -3 6 -8 10 -11 10 -2 0
-4 -4 -4 -10z"/>
<path d="M2505 1730 c-3 -5 -1 -10 4 -10 6 0 11 5 11 10 0 6 -2 10 -4 10 -3 0
-8 -4 -11 -10z"/>
<path d="M2525 1700 c3 -5 8 -10 11 -10 2 0 4 5 4 10 0 6 -5 10 -11 10 -5 0
-7 -4 -4 -10z"/>
<path d="M2250 1686 c7 -7 13 -7 20 0 6 6 3 10 -10 10 -13 0 -16 -4 -10 -10z"/>
<path d="M2405 1660 c3 -5 8 -10 11 -10 2 0 4 5 4 10 0 6 -5 10 -11 10 -5 0
-7 -4 -4 -10z"/>
<path d="M2471 1663 c-1 -6 -11 -13 -23 -16 -21 -3 -21 -4 -5 -12 21 -9 42 7
34 27 -3 8 -6 9 -6 1z"/>
<path d="M1975 1580 c3 -5 10 -10 16 -10 5 0 9 5 9 10 0 6 -7 10 -16 10 -8 0
-12 -4 -9 -10z"/>
<path d="M2535 1332 c-14 -3 -5 -10 33 -23 35 -12 60 -15 75 -10 19 8 17 10
-18 16 -22 4 -47 11 -55 15 -8 3 -24 4 -35 2z"/>
<path d="M2460 1220 c0 -11 5 -20 10 -20 6 0 10 9 10 20 0 11 -4 20 -10 20 -5
0 -10 -9 -10 -20z"/>
<path d="M1200 1176 c0 -3 9 -10 20 -16 11 -6 20 -8 20 -6 0 3 -9 10 -20 16
-11 6 -20 8 -20 6z"/>
<path d="M2385 1160 c3 -5 8 -10 11 -10 2 0 4 5 4 10 0 6 -5 10 -11 10 -5 0
-7 -4 -4 -10z"/>
<path d="M2450 1110 c0 -5 4 -10 9 -10 6 0 13 5 16 10 3 6 -1 10 -9 10 -9 0
-16 -4 -16 -10z"/>
<path d="M1620 1107 c0 -2 15 -16 33 -33 l32 -29 -29 33 c-28 30 -36 37 -36
29z"/>
<path d="M1351 1086 c2 -2 15 -9 29 -15 24 -11 24 -11 6 3 -16 13 -49 24 -35
12z"/>
<path d="M2120 1030 c0 -5 5 -10 10 -10 6 0 10 5 10 10 0 6 -4 10 -10 10 -5 0
-10 -4 -10 -10z"/>
<path d="M1470 1020 c8 -5 20 -10 25 -10 6 0 3 5 -5 10 -8 5 -19 10 -25 10 -5
0 -3 -5 5 -10z"/>
<path d="M1570 970 c19 -11 42 -19 50 -19 8 0 -5 8 -29 19 -55 25 -67 25 -21
0z"/>
<path d="M1647 939 c7 -7 15 -10 18 -7 3 3 -2 9 -12 12 -14 6 -15 5 -6 -5z"/>
<path d="M1710 910 c8 -5 20 -10 25 -10 6 0 3 5 -5 10 -8 5 -19 10 -25 10 -5
0 -3 -5 5 -10z"/>
<path d="M1750 895 c0 -2 21 -11 48 -19 26 -8 87 -29 136 -46 49 -17 93 -29
98 -28 8 3 -261 98 -276 98 -3 0 -6 -2 -6 -5z"/>
<path d="M2094 780 c56 -22 184 -44 212 -37 11 3 3 5 -17 6 -20 0 -81 12 -135
26 -117 30 -125 30 -60 5z"/>
<path d="M7486 8099 c-8 -77 -8 -104 0 -96 7 6 18 157 11 157 -2 0 -7 -28 -11
-61z"/>
<path d="M7481 7974 c0 -11 3 -14 6 -6 3 7 2 16 -1 19 -3 4 -6 -2 -5 -13z"/>
<path d="M8831 5454 c-27 -22 -31 -32 -31 -75 0 -30 8 -65 20 -89 11 -22 20
-49 20 -62 0 -17 3 -19 12 -10 9 9 7 21 -7 51 -19 43 -17 110 5 136 10 13 16
12 41 -1 37 -19 37 -28 -1 -20 -16 3 -30 2 -30 -3 0 -5 13 -11 30 -13 22 -3
31 0 36 14 7 22 23 24 30 3 10 -24 -6 -105 -20 -105 -7 0 -21 -6 -32 -14 -13
-10 -14 -14 -4 -13 8 2 20 6 26 9 6 4 16 -12 24 -40 l14 -47 8 35 c4 19 9 77
10 128 3 91 2 94 -25 118 -38 32 -86 32 -126 -2z"/>
<path d="M8845 5340 c-3 -5 1 -10 9 -10 9 0 16 5 16 10 0 6 -4 10 -9 10 -6 0
-13 -4 -16 -10z"/>
<path d="M8870 5309 c0 -5 5 -7 10 -4 6 3 10 8 10 11 0 2 -4 4 -10 4 -5 0 -10
-5 -10 -11z"/>
<path d="M7936 5206 c3 -9 10 -16 14 -16 5 0 12 -9 15 -20 3 -11 16 -25 28
-31 16 -9 14 -3 -12 29 -36 46 -54 61 -45 38z"/>
<path d="M8186 2640 c3 -52 7 -107 10 -122 4 -22 2 -28 -12 -28 -16 0 -15 -2
4 -16 12 -8 22 -21 22 -28 0 -7 7 -21 15 -32 14 -18 15 -17 10 16 -4 19 -8 46
-10 60 -4 25 -20 118 -35 200 -6 32 -7 18 -4 -50z"/>
<path d="M7968 2364 c-16 -8 -28 -20 -28 -26 0 -6 -7 -19 -16 -29 -17 -19 -21
-75 -16 -232 2 -81 3 -87 18 -73 13 13 15 36 12 125 -1 60 0 104 4 98 4 -7 8
4 8 23 0 19 11 56 25 83 14 26 24 47 23 47 -2 -1 -15 -8 -30 -16z m-41 -196
c-3 -8 -6 -5 -6 6 -1 11 2 17 5 13 3 -3 4 -12 1 -19z"/>
<path d="M8490 2120 c-9 -6 -10 -10 -3 -10 6 0 15 5 18 10 8 12 4 12 -15 0z"/>
<path d="M8266 2083 c-6 -14 -5 -15 5 -6 7 7 10 15 7 18 -3 3 -9 -2 -12 -12z"/>
<path d="M7601 2045 c-2 -5 -4 -30 -6 -55 -3 -38 -2 -41 6 -20 5 13 8 38 6 55
-2 16 -5 26 -6 20z"/>
<path d="M8214 1973 c-10 -26 -21 -50 -25 -53 -3 -3 -22 -36 -41 -75 -61 -121
-155 -277 -221 -367 -149 -203 -188 -260 -185 -268 2 -5 28 27 58 73 53 78
107 153 151 207 11 14 29 43 41 65 11 22 32 54 45 72 54 70 211 378 199 390
-2 2 -12 -17 -22 -44z"/>
<path d="M8493 1900 c0 -36 2 -50 4 -32 2 17 2 47 0 65 -2 17 -4 3 -4 -33z"/>
<path d="M8547 1893 c-7 -39 -1 -40 11 -4 6 17 7 31 3 31 -5 0 -11 -12 -14
-27z"/>
<path d="M8511 1864 c0 -11 3 -14 6 -6 3 7 2 16 -1 19 -3 4 -6 -2 -5 -13z"/>
<path d="M9025 1780 c3 -5 8 -10 11 -10 2 0 4 5 4 10 0 6 -5 10 -11 10 -5 0
-7 -4 -4 -10z"/>
<path d="M8563 1724 c-20 -31 -9 -57 27 -62 27 -4 50 21 49 52 0 19 -1 19 -10
-2 -10 -27 -42 -26 -47 1 -2 10 5 21 20 26 l23 10 -22 0 c-14 1 -29 -9 -40
-25z"/>
<path d="M8787 1723 c-4 -3 -7 -24 -7 -45 0 -35 2 -38 28 -38 30 1 62 21 62
39 0 30 -63 64 -83 44z m53 -34 c0 -10 -2 -19 -4 -19 -2 0 -11 -3 -20 -6 -12
-5 -16 0 -16 18 0 14 3 27 6 31 11 11 34 -5 34 -24z"/>
<path d="M8430 1626 c0 -2 9 -6 20 -9 11 -3 18 -1 14 4 -5 9 -34 13 -34 5z"/>
<path d="M8645 1564 c4 -44 3 -64 -3 -60 -6 3 -13 2 -17 -4 -3 -6 4 -10 18
-10 20 0 23 4 19 29 -3 23 1 30 20 36 23 8 23 8 -4 12 -30 5 -38 30 -13 39 22
9 18 24 -6 24 -20 0 -21 -3 -14 -66z"/>
<path d="M8938 1603 c12 -2 30 -2 40 0 9 3 -1 5 -23 4 -22 0 -30 -2 -17 -4z"/>
<path d="M9008 1593 c7 -3 16 -2 19 1 4 3 -2 6 -13 5 -11 0 -14 -3 -6 -6z"/>
<path d="M8570 1560 c0 -5 9 -10 19 -10 11 0 23 5 26 10 4 6 -5 10 -19 10 -14
0 -26 -4 -26 -10z"/>
<path d="M8950 1560 c8 -5 22 -9 30 -9 10 0 8 3 -5 9 -27 12 -43 12 -25 0z"/>
<path d="M8725 1540 c3 -5 11 -10 16 -10 6 0 7 5 4 10 -3 6 -11 10 -16 10 -6
0 -7 -4 -4 -10z"/>
<path d="M9102 7480 c0 -14 2 -19 5 -12 2 6 2 18 0 25 -3 6 -5 1 -5 -13z"/>
<path d="M9091 7434 c0 -11 3 -14 6 -6 3 7 2 16 -1 19 -3 4 -6 -2 -5 -13z"/>
<path d="M3559 7053 c-13 -16 -12 -17 4 -4 16 13 21 21 13 21 -2 0 -10 -8 -17
-17z"/>
<path d="M3500 6955 c-7 -8 -8 -15 -2 -15 5 0 15 7 22 15 7 8 8 15 2 15 -5 0
-15 -7 -22 -15z"/>
<path d="M5872 6372 c-33 -10 -112 -75 -109 -91 1 -8 10 -19 19 -25 14 -8 21
-6 32 9 15 20 15 19 17 -5 1 -14 1 -28 0 -32 -2 -16 54 -48 83 -47 30 1 29 2
-7 9 -21 4 -46 15 -55 25 -16 17 -16 17 8 1 33 -22 66 -20 91 5 17 17 20 29
16 60 -3 24 -1 39 5 39 6 0 35 -24 65 -53 61 -62 70 -51 17 20 l-37 48 33 -30
c23 -21 30 -24 22 -10 -31 61 -126 98 -200 77z m66 -19 c-10 -2 -26 -2 -35 0
-10 3 -2 5 17 5 19 0 27 -2 18 -5z m2 -77 c0 -8 -4 -17 -9 -20 -10 -7 -23 19
-14 28 11 11 23 6 23 -8z"/>
<path d="M6474 6351 c-18 -11 -35 -25 -40 -32 -4 -7 10 -2 31 11 25 15 62 26
104 30 l66 7 -65 2 c-48 1 -73 -4 -96 -18z"/>
<path d="M6643 6354 c3 -5 -27 -9 -68 -9 -73 0 -75 -1 -114 -39 -39 -38 -78
-103 -68 -112 3 -3 15 13 28 35 12 23 25 41 29 41 3 0 10 -15 15 -32 20 -67
99 -68 130 -1 10 20 14 45 11 59 l-7 25 43 -27 c24 -15 47 -33 51 -41 7 -11
12 -11 23 -2 22 18 17 36 -15 55 -17 10 -28 21 -25 26 3 4 -3 5 -12 1 -11 -4
-15 -3 -10 5 3 6 1 14 -5 18 -7 4 -10 3 -6 -2z"/>
<path d="M6150 5942 c0 -13 79 -56 88 -48 3 3 0 6 -7 6 -7 0 -11 6 -8 14 3 7
0 19 -6 25 -14 14 -30 15 -22 1 9 -14 -19 -12 -33 2 -9 9 -12 9 -12 0z"/>
<path d="M6303 5943 c-7 -2 -13 -9 -13 -15 0 -12 41 -6 41 7 1 12 -11 15 -28
8z"/>
<path d="M6175 5790 l-20 -9 20 1 c11 0 31 4 45 8 l25 8 -25 0 c-14 0 -34 -3
-45 -8z"/>
<path d="M6417 5764 c-55 -20 -186 -24 -280 -9 -77 12 -98 12 -85 0 10 -10
172 -35 223 -35 74 1 195 32 195 51 0 11 -5 10 -53 -7z"/>
<path d="M6245 5650 c-25 -6 -27 -8 -12 -15 21 -9 67 1 67 15 0 11 -11 11 -55
0z"/>
<path d="M4185 6373 c-39 -10 -66 -37 -95 -95 -17 -33 -29 -65 -27 -72 2 -6
12 6 21 26 25 52 43 55 61 11 18 -44 30 -53 68 -53 42 0 80 43 75 85 l-4 33
39 -20 c30 -15 38 -24 34 -39 -4 -15 -2 -17 12 -9 10 5 24 16 31 25 18 22 -9
50 -85 86 -57 28 -87 33 -130 22z m94 -22 c8 -5 -5 -7 -35 -4 -68 6 -77 11
-24 12 25 0 51 -3 59 -8z m51 -21 c8 -5 11 -10 5 -10 -5 0 -17 5 -25 10 -8 5
-10 10 -5 10 6 0 17 -5 25 -10z m-70 -49 c0 -11 -4 -23 -10 -26 -6 -4 -10 5
-10 19 0 14 5 26 10 26 6 0 10 -9 10 -19z"/>
<path d="M3547 6363 c7 -2 -19 -21 -57 -40 -39 -20 -70 -41 -70 -47 0 -6 18
-31 41 -56 22 -25 29 -30 15 -12 -30 38 -28 45 16 66 40 20 38 21 38 -14 0
-38 39 -80 74 -80 25 0 60 34 71 71 9 29 22 23 52 -23 20 -29 29 -37 31 -25 6
31 -55 104 -110 132 -41 21 -46 26 -23 22 17 -3 39 -8 50 -12 14 -4 13 -2 -5
9 -15 9 -47 15 -80 15 -30 0 -50 -3 -43 -6z m84 -60 c12 -16 12 -17 -1 -7 -8
6 -22 14 -30 17 -13 5 -12 6 1 6 9 1 23 -7 30 -16z m-6 -84 c-7 -11 -35 -12
-35 -1 0 4 9 8 20 9 11 1 18 -2 15 -8z"/>
<path d="M3553 6163 c9 -2 23 -2 30 0 6 3 -1 5 -18 5 -16 0 -22 -2 -12 -5z"/>
<path d="M3618 6163 c7 -3 16 -2 19 1 4 3 -2 6 -13 5 -11 0 -14 -3 -6 -6z"/>
<path d="M3941 5926 c-38 -37 -31 -51 15 -31 26 11 31 17 27 39 -3 14 -6 26
-7 25 0 0 -16 -15 -35 -33z"/>
<path d="M3815 5940 c-3 -4 2 -11 11 -14 23 -9 46 -7 40 3 -8 12 -45 21 -51
11z"/>
<path d="M3700 5759 c0 -10 55 -26 140 -40 97 -16 314 22 255 45 -9 3 -14 2
-11 -3 9 -14 -203 -24 -269 -12 -100 17 -115 19 -115 10z"/>
<path d="M3840 5651 c0 -11 36 -21 82 -21 47 0 58 16 17 24 -46 9 -99 7 -99
-3z"/>
<path d="M4533 6145 c-1 -30 1 -32 13 -20 17 17 18 29 1 43 -10 9 -13 4 -14
-23z"/>
<path d="M6985 6070 c-4 -14 -13 -28 -19 -32 -8 -6 -7 -8 1 -8 15 0 36 37 30
53 -2 7 -7 1 -12 -13z"/>
<path d="M6935 5989 c-4 -6 -5 -12 -2 -15 2 -3 7 2 10 11 7 17 1 20 -8 4z"/>
<path d="M5196 3749 c-4 -23 -5 -44 -2 -46 2 -2 7 14 11 37 4 23 5 43 2 46 -2
3 -7 -14 -11 -37z"/>
<path d="M2541 1964 c0 -11 3 -14 6 -6 3 7 2 16 -1 19 -3 4 -6 -2 -5 -13z"/>
<path d="M7540 1203 c0 -5 7 -18 15 -29 13 -18 14 -18 8 4 -5 22 -23 41 -23
25z"/>
<path d="M7503 1005 c-21 -19 -33 -35 -28 -35 13 0 25 10 54 43 34 38 19 34
-26 -8z"/>
</g>
</svg>
