<?xml version="1.0" standalone="no"?>
<!DOCTYPE svg PUBLIC "-//W3C//DTD SVG 20010904//EN"
 "http://www.w3.org/TR/2001/REC-SVG-20010904/DTD/svg10.dtd">
<svg version="1.0" xmlns="http://www.w3.org/2000/svg"
 width="512.000000pt" height="512.000000pt" viewBox="0 0 512.000000 512.000000"
 preserveAspectRatio="xMidYMid meet">
<metadata>
Created by potrace 1.16, written by Peter Selinger 2001-2019
</metadata>
<g transform="translate(0.000000,512.000000) scale(0.100000,-0.100000)"
fill="#000000" stroke="none">
<path d="M0 4747 c0 -25 6 -39 22 -49 l22 -15 -22 -37 c-17 -28 -22 -53 -22
-99 l1 -62 40 78 c21 42 43 77 49 77 5 0 73 -33 152 -73 79 -41 171 -86 206
-100 35 -15 62 -31 60 -36 -11 -32 -244 -471 -250 -471 -3 0 -39 41 -79 90
-76 93 -82 97 -148 84 -26 -6 -31 -11 -31 -35 0 -32 2 -33 47 -20 37 11 42 6
148 -137 56 -75 71 -90 82 -80 7 8 74 132 149 278 74 146 144 273 154 284 17
18 21 17 130 -19 61 -20 114 -43 117 -51 2 -7 -43 -158 -102 -334 -59 -177
-105 -324 -102 -326 6 -7 173 22 263 45 l71 18 107 -108 c59 -60 111 -109 116
-109 5 0 30 66 56 148 99 317 145 458 154 471 9 15 77 6 181 -25 l51 -15 -6
-52 c-4 -29 -25 -151 -46 -272 -22 -121 -42 -247 -46 -279 l-7 -59 39 7 c21 4
90 24 153 46 l114 38 77 -62 c108 -88 168 -128 175 -116 8 12 26 119 70 403
19 125 39 236 45 247 9 17 19 18 118 13 59 -3 111 -9 116 -14 5 -4 15 -151 23
-326 8 -175 19 -322 23 -327 5 -5 62 17 129 49 81 39 127 56 143 52 13 -3 81
-31 152 -62 70 -31 131 -53 134 -50 3 3 -4 151 -16 328 -13 177 -23 329 -22
338 0 12 20 18 94 27 141 18 145 17 161 -20 7 -18 41 -157 75 -308 34 -151 66
-279 71 -284 13 -15 46 7 142 95 48 43 92 79 97 79 5 0 32 -9 60 -20 59 -23
222 -70 245 -70 19 0 23 -24 -66 320 -38 146 -71 284 -75 307 l-6 42 53 15
c92 25 106 26 117 13 5 -6 40 -95 76 -197 122 -341 148 -410 156 -410 4 0 35
33 70 73 106 122 96 116 181 101 210 -36 249 -41 249 -26 0 13 -193 548 -210
582 -4 8 -10 27 -14 41 -6 26 -2 28 94 69 55 23 106 40 114 37 7 -3 60 -101
117 -219 148 -303 172 -351 186 -355 6 -3 41 40 77 94 57 84 66 104 66 143 l0
45 -25 -30 c-14 -16 -44 -60 -67 -96 l-42 -67 -118 239 c-65 131 -118 242
-118 247 0 10 189 102 295 143 l70 27 3 56 c3 64 10 64 -106 7 -34 -17 -64
-31 -67 -31 -2 0 -58 -25 -125 -55 -66 -31 -126 -55 -133 -54 -27 3 -37 -2
-37 -20 0 -15 -22 -28 -103 -60 -66 -26 -111 -38 -126 -34 -14 3 -26 1 -31 -7
-11 -17 -198 -71 -225 -64 -15 4 -26 0 -32 -10 -10 -18 -133 -66 -169 -66 -17
0 -28 -7 -31 -20 -4 -14 -24 -26 -70 -40 -76 -23 -87 -24 -112 -8 -15 9 -27 7
-62 -9 -65 -31 -165 -49 -183 -34 -12 10 -19 8 -34 -7 -22 -22 -139 -52 -201
-52 -29 0 -41 -4 -41 -14 0 -22 -7 -24 -128 -37 -105 -11 -113 -11 -126 6 -11
16 -18 17 -62 6 -30 -7 -129 -10 -261 -9 -164 1 -215 -1 -228 -12 -23 -19
-213 -6 -229 16 -9 11 -37 16 -116 19 -101 3 -134 10 -173 37 -14 10 -19 10
-25 1 -9 -15 -185 9 -208 28 -11 9 -20 9 -37 0 -36 -19 -206 21 -230 54 -13
17 -28 25 -49 25 -50 0 -405 119 -449 151 -24 17 -31 18 -48 7 -30 -18 -241
51 -256 84 -7 16 -22 25 -50 30 -56 9 -187 66 -207 89 -9 10 -26 19 -37 19
-22 0 -174 72 -201 95 -8 7 -28 15 -45 17 -16 3 -38 9 -47 13 -15 6 -18 2 -18
-28z m5085 -56 c-6 -6 -77 -40 -160 -76 -82 -37 -155 -71 -162 -77 -7 -5 -18
-8 -25 -6 -16 6 22 26 197 104 140 62 168 72 150 55z m-4840 -69 c66 -32 157
-74 202 -93 80 -33 111 -58 56 -44 -34 8 -393 181 -393 189 0 12 16 5 135 -52z
m4145 -229 c0 -10 -190 -66 -198 -59 -6 6 3 10 101 42 77 25 97 28 97 17z
m-3385 -63 c68 -22 103 -40 77 -40 -21 0 -156 50 -167 62 -7 8 -6 10 5 6 8 -3
47 -15 85 -28z m3441 -52 c49 -128 161 -453 158 -457 -2 -2 -63 4 -135 14
l-132 18 -63 -69 c-34 -38 -65 -66 -69 -62 -8 8 -171 463 -177 492 -2 16 8 24
47 39 76 29 297 95 322 96 18 1 26 -11 49 -71z m-289 45 c-11 -11 -151 -63
-156 -58 -2 3 18 14 45 25 27 12 58 25 69 30 24 10 51 13 42 3z m-3029 -88
c122 -43 192 -72 192 -81 0 -7 -18 -67 -39 -131 -22 -65 -56 -172 -76 -238
-20 -66 -41 -124 -45 -129 -5 -5 -47 27 -97 73 -48 44 -94 81 -103 81 -8 0
-58 -9 -110 -20 -52 -11 -107 -20 -121 -20 l-27 0 91 271 c89 269 90 271 116
266 14 -3 113 -36 219 -72z m117 14 c55 -18 92 -35 82 -37 -23 -5 -207 59
-207 71 0 5 6 7 13 5 6 -3 57 -20 112 -39z m2464 -69 c-12 -6 -58 -18 -146
-36 -13 -2 -23 0 -23 5 0 11 161 51 174 43 5 -2 2 -8 -5 -12z m-234 -49 c-6
-4 -37 -13 -70 -20 -33 -6 -70 -14 -82 -17 -13 -4 -23 -2 -23 3 0 6 30 17 68
25 79 18 120 22 107 9z m323 -238 c34 -137 65 -258 68 -271 8 -27 10 -27 -154
20 l-104 29 -65 -58 c-83 -74 -113 -97 -119 -90 -3 3 -22 83 -44 178 -21 96
-48 212 -60 258 -11 46 -18 87 -13 91 4 4 87 24 183 45 96 20 177 38 179 41 2
2 18 4 36 4 l31 0 62 -247z m-1998 226 c35 -5 66 -12 69 -15 12 -12 -12 -10
-94 6 -98 20 -80 26 25 9z m230 -34 c84 -8 105 -14 92 -27 -6 -6 -32 -5 -73 2
-108 18 -119 21 -119 31 0 6 8 8 18 5 9 -2 46 -7 82 -11z m-229 -20 c41 -8
124 -21 185 -30 61 -10 117 -21 125 -25 11 -7 11 -21 1 -82 -7 -40 -26 -160
-42 -267 -17 -107 -32 -196 -34 -198 -2 -2 -47 29 -100 68 -109 80 -93 78
-245 36 -52 -15 -97 -25 -99 -22 -2 2 16 123 40 269 l43 266 26 0 c15 0 60 -7
100 -15z m1114 -15 c-4 -6 -84 -9 -213 -9 -119 1 -190 5 -167 9 64 12 387 12
380 0z m12 -52 c6 -7 13 -71 17 -143 3 -71 11 -192 17 -268 7 -76 9 -140 6
-143 -3 -4 -58 16 -122 44 l-116 50 -99 -44 c-55 -24 -104 -44 -108 -44 -4 0
-14 109 -20 243 -16 309 -16 305 6 310 9 3 105 5 213 6 147 1 199 -2 206 -11z"/>
<path d="M4210 4173 c-8 -3 -25 -10 -38 -14 l-24 -9 20 -33 c26 -42 52 -131
52 -179 l0 -38 50 0 c100 0 160 48 160 127 0 97 -56 154 -151 152 -30 0 -61
-3 -69 -6z m130 -81 c20 -25 27 -86 12 -109 -10 -15 -62 -35 -78 -29 -6 2 -21
35 -33 73 -12 37 -24 73 -27 80 -3 7 7 13 28 15 52 5 77 -3 98 -30z"/>
<path d="M943 4129 c8 -30 -26 -135 -59 -184 -13 -20 -22 -40 -19 -45 9 -15
98 -40 144 -40 59 0 104 28 131 79 25 51 26 95 0 131 -22 31 -95 66 -160 76
-42 7 -43 6 -37 -17z m114 -61 c25 -20 33 -54 22 -92 -12 -42 -42 -66 -84 -66
-62 0 -65 17 -30 138 15 50 16 50 46 42 17 -5 38 -15 46 -22z"/>
<path d="M3600 4004 c0 -3 5 -14 11 -25 9 -18 8 -19 -18 -12 -30 9 -160 9
-168 1 -3 -3 1 -18 9 -34 19 -38 37 -148 30 -183 -7 -34 10 -41 101 -41 64 0
92 15 115 59 24 47 3 159 -41 215 -19 24 -39 34 -39 20z m-38 -84 c44 -13 58
-34 58 -89 0 -50 -20 -71 -71 -71 -32 0 -39 4 -44 23 -2 12 -11 50 -18 85
l-14 62 26 0 c14 0 43 -5 63 -10z"/>
<path d="M1765 3911 c9 -55 -11 -145 -41 -180 -13 -16 -24 -31 -24 -34 0 -11
119 -41 157 -40 91 3 138 52 138 143 0 44 -5 63 -20 80 -28 32 -89 57 -159 65
l-58 7 7 -41z m118 -38 c38 -19 52 -58 37 -106 -14 -48 -46 -64 -98 -51 -41
10 -39 2 -26 121 7 61 7 63 33 56 14 -3 39 -12 54 -20z"/>
<path d="M2600 3872 c0 -4 5 -13 11 -19 12 -12 8 -208 -5 -235 -17 -36 125
-51 183 -20 98 53 91 216 -11 262 -44 20 -178 29 -178 12z m139 -56 c46 -24
64 -87 39 -141 -12 -28 -39 -38 -84 -33 l-29 3 -3 93 -3 92 26 0 c14 0 38 -6
54 -14z"/>
<path d="M4927 4465 c-51 -17 -51 -19 -32 -49 10 -15 30 -66 45 -114 l27 -87
44 -3 c24 -2 58 -1 76 3 l33 6 0 113 0 114 -34 16 c-41 19 -107 20 -159 1z
m106 -44 c53 -20 81 -118 42 -147 -10 -8 -33 -14 -51 -14 -34 0 -30 -5 -69
104 -15 40 -15 50 -4 57 18 11 52 11 82 0z"/>
<path d="M120 4433 c-14 -51 -86 -163 -105 -163 -8 0 -15 -9 -15 -19 0 -22 46
-53 110 -76 82 -29 174 23 201 114 18 62 -6 103 -86 148 -78 43 -92 42 -105
-4z m81 -46 c26 -17 35 -31 37 -58 4 -49 -33 -103 -75 -107 -32 -3 -97 23 -91
36 37 82 75 151 84 151 6 1 26 -9 45 -22z"/>
<path d="M1730 2881 c-134 -43 -232 -117 -276 -208 -24 -48 -28 -70 -29 -142
0 -47 3 -109 8 -137 7 -49 6 -52 -17 -58 -29 -7 -50 -60 -40 -102 10 -44 42
-104 84 -159 47 -61 99 -167 85 -172 -5 -2 -57 -27 -115 -56 l-105 -52 -52
-100 c-61 -118 -163 -369 -193 -475 -12 -41 -24 -119 -27 -172 l-6 -97 -50
-42 c-91 -77 -111 -174 -58 -284 41 -87 166 -272 193 -286 31 -16 38 -28 38
-67 0 -71 113 -132 243 -132 144 1 214 66 177 166 -19 49 32 80 115 69 76 -9
78 -13 53 -73 -21 -49 -21 -53 -5 -86 41 -86 221 -108 368 -45 63 27 80 49 87
105 5 46 6 47 88 100 99 64 132 105 173 220 42 116 42 189 1 261 -24 41 -40
57 -80 75 -27 13 -50 29 -50 36 0 7 10 50 22 95 41 149 24 516 -28 619 -8 15
-59 61 -114 104 -56 42 -100 83 -98 90 2 6 52 65 111 129 60 65 116 133 124
153 17 42 11 87 -17 117 -18 20 -19 23 -4 80 24 91 15 225 -19 292 -52 101
-162 188 -294 232 -80 27 -214 28 -293 2z m243 -50 c95 -25 140 -48 203 -104
75 -68 107 -134 112 -232 4 -83 -2 -109 -73 -320 -55 -164 -56 -166 -124 -232
-86 -85 -132 -106 -230 -105 -179 1 -296 99 -330 277 -26 135 -53 375 -48 428
13 147 121 253 297 293 78 17 107 17 193 -5z m-514 -630 l-1 -46 -13 30 c-8
17 -14 46 -14 65 0 33 1 34 14 16 9 -11 15 -40 14 -65z m851 -2 c0 -13 -50
-99 -57 -99 -10 0 7 63 22 87 16 24 35 31 35 12z m-760 -367 c0 -5 -10 -14
-22 -21 l-23 -11 23 6 c16 4 33 -3 59 -27 50 -43 106 -67 191 -79 125 -17 284
18 311 69 13 23 36 29 28 8 -3 -8 21 -27 64 -50 37 -21 77 -49 88 -63 31 -39
56 -198 56 -359 0 -117 -4 -154 -24 -225 -13 -47 -29 -94 -36 -106 -13 -20
-107 -54 -152 -54 -23 0 -113 75 -113 95 0 17 67 127 86 142 14 10 14 17 4 49
-17 51 -7 116 33 209 19 44 38 91 42 105 7 22 6 23 -9 11 -9 -7 -32 -40 -52
-72 -19 -33 -37 -59 -38 -59 -1 0 -1 28 1 62 2 39 0 59 -7 52 -13 -13 -40
-176 -40 -247 0 -65 -28 -128 -93 -210 -16 -21 -28 -39 -26 -40 2 -2 17 -11
32 -21 19 -12 27 -23 22 -33 -3 -10 6 -28 26 -49 l31 -32 -43 -7 c-57 -8 -315
11 -396 30 -35 8 -77 22 -93 30 -40 21 -47 19 -24 -6 44 -48 139 -75 343 -94
80 -8 151 -15 156 -15 33 -2 -34 -21 -105 -29 -92 -12 -170 -4 -261 28 -65 22
-157 67 -181 89 -24 20 -23 67 2 167 24 94 38 395 22 460 -10 38 -10 37 -11
-32 -1 -86 -19 -175 -34 -170 -5 1 -18 19 -29 37 -24 46 -24 18 1 -76 l18 -71
-23 -71 c-14 -39 -27 -98 -30 -131 -10 -87 -7 -85 -113 -71 -83 12 -92 15 -97
37 -8 30 2 127 22 213 20 86 122 340 187 465 l52 100 52 10 c37 7 58 18 73 38
20 26 50 37 50 19z m-275 -963 c132 -50 184 -114 193 -240 2 -38 1 -69 -4 -69
-5 0 -56 43 -113 95 -125 113 -148 124 -84 39 13 -17 23 -44 23 -59 0 -22 14
-42 63 -87 l62 -59 -35 6 c-23 4 -69 -3 -133 -19 -53 -15 -103 -26 -111 -26
-19 0 -142 186 -157 237 -23 81 14 157 96 195 47 22 120 17 200 -13z m1096 -2
c79 -53 87 -137 24 -264 -43 -87 -90 -137 -192 -207 l-72 -49 -44 40 c-44 41
-85 68 -92 61 -2 -2 13 -24 35 -48 49 -56 50 -66 4 -35 -43 30 -89 39 -155 33
-27 -3 -49 -1 -49 4 0 26 27 50 89 83 58 30 73 44 96 87 15 27 49 79 76 114
26 35 45 64 41 64 -33 0 -121 -91 -137 -141 -10 -31 -27 -10 -19 24 16 77 92
179 159 215 81 43 187 52 236 19z m-912 -432 c22 -24 41 -47 41 -49 0 -3 -19
2 -42 10 -69 25 -157 5 -215 -48 l-22 -20 -15 37 c-20 47 -20 48 3 69 30 27
90 45 152 46 54 0 58 -2 98 -45z m37 -128 c52 -60 12 -102 -96 -102 -86 1
-126 20 -123 60 1 18 13 39 29 54 24 20 35 23 97 19 61 -3 72 -7 93 -31z m498
19 c37 -15 66 -50 66 -79 0 -30 -63 -50 -143 -45 -59 3 -72 8 -89 28 -23 28
-17 66 14 93 25 21 104 23 152 3z"/>
<path d="M1621 2409 c-38 -23 -37 -34 3 -19 39 14 101 12 141 -5 34 -13 35
-13 25 5 -24 45 -111 55 -169 19z"/>
<path d="M2004 2400 c-36 -14 -35 -26 2 -22 44 5 119 -23 139 -51 l15 -21 0
20 c0 29 -44 70 -81 78 -39 7 -48 7 -75 -4z"/>
<path d="M1648 2303 c-32 -8 -19 -23 20 -23 20 0 54 -3 75 -6 29 -5 37 -3 37
9 0 23 -76 35 -132 20z"/>
<path d="M1955 2290 c-4 -7 -2 -16 5 -20 13 -8 141 -22 148 -16 2 3 -8 12 -23
22 -33 22 -119 31 -130 14z"/>
<path d="M1828 2194 c-16 -16 -7 -22 41 -29 26 -4 60 -13 75 -20 24 -13 26
-12 26 5 0 11 -9 24 -20 30 -27 14 -113 24 -122 14z"/>
<path d="M1720 2060 c0 -5 3 -10 8 -10 4 -1 59 -7 122 -15 63 -7 117 -11 119
-9 11 10 -22 28 -66 35 -70 11 -183 11 -183 -1z"/>
<path d="M2030 496 c0 -13 53 -27 64 -16 7 7 3 10 -11 10 -12 0 -28 3 -37 6
-9 3 -16 3 -16 0z"/>
<path d="M3350 2804 c-89 -24 -171 -67 -230 -121 -101 -93 -134 -201 -106
-358 l15 -90 -29 -23 c-53 -42 -36 -123 53 -251 30 -42 62 -91 71 -109 21 -40
27 -33 -106 -113 -100 -59 -90 -42 -171 -299 -80 -253 -80 -247 3 -391 27 -47
50 -89 50 -93 0 -3 -15 -6 -32 -6 -119 -1 -207 -133 -178 -266 24 -108 61
-212 98 -272 35 -56 39 -67 34 -112 -4 -40 -1 -55 14 -71 23 -26 117 -74 164
-84 62 -14 168 -7 215 14 62 27 70 48 49 123 l-17 61 23 19 c22 18 35 19 194
12 180 -7 213 -14 200 -42 -4 -9 -9 -36 -12 -60 -4 -37 0 -48 24 -73 67 -70
248 -79 370 -19 l64 31 0 68 c0 66 2 70 50 135 107 146 139 333 75 443 -47 80
-143 114 -261 94 -35 -7 -71 -14 -79 -17 -21 -9 -19 23 3 34 9 5 42 12 73 15
74 7 113 28 147 79 23 36 27 51 27 117 0 69 -5 87 -53 201 -29 69 -71 169 -94
223 -37 90 -44 100 -82 118 -78 39 -166 94 -166 104 0 6 40 51 89 101 97 99
131 146 131 182 0 28 -25 78 -44 89 -13 7 -13 17 0 78 30 140 6 277 -62 358
-126 150 -334 219 -514 171z m227 -58 c80 -21 142 -56 200 -113 116 -112 130
-241 53 -472 -16 -47 -36 -111 -44 -141 -18 -66 -57 -128 -119 -192 -66 -68
-116 -91 -213 -96 -72 -4 -89 -1 -135 20 -108 50 -178 149 -203 288 -42 232
-58 372 -47 433 35 199 284 333 508 273z m-528 -637 c6 -29 9 -54 7 -56 -7 -7
-23 29 -30 70 -11 57 11 45 23 -14z m861 12 c0 -12 -50 -101 -57 -101 -12 0 7
73 23 91 18 20 34 25 34 10z m-740 -371 c0 -5 -8 -14 -17 -20 -15 -10 -15 -11
-2 -6 11 3 34 -12 62 -38 61 -59 142 -81 264 -73 108 7 170 28 217 73 l36 35
83 -31 c45 -17 89 -39 98 -48 10 -9 52 -105 95 -212 92 -229 100 -279 51 -343
-34 -45 -91 -64 -143 -47 -68 23 -83 93 -39 176 35 65 33 75 -12 72 -21 -2
-37 1 -37 7 1 6 5 64 8 130 8 139 -6 141 -25 3 -6 -48 -15 -88 -19 -88 -4 0
-17 23 -29 52 -38 90 -37 58 3 -127 9 -38 16 -95 16 -125 0 -30 7 -80 15 -110
8 -30 15 -70 15 -88 0 -29 -5 -35 -37 -49 -70 -29 -499 -6 -595 32 -14 6 -9
18 33 88 27 45 49 89 49 97 0 9 -26 49 -59 89 l-59 74 -4 86 c-5 86 -34 201
-51 201 -5 0 -6 -8 -3 -17 13 -32 19 -210 9 -216 -6 -4 -30 7 -53 24 l-43 31
33 -58 c18 -33 54 -83 79 -113 91 -108 92 -110 75 -143 -21 -41 -121 -138
-142 -138 -29 0 -56 25 -111 104 -75 109 -92 151 -81 206 10 51 105 351 123
390 8 17 32 33 75 49 34 14 62 29 62 34 0 16 31 47 47 47 7 0 13 -4 13 -10z
m588 -2 c18 -18 15 -27 -8 -21 -11 3 -20 12 -20 19 0 17 12 18 28 2z m-548
-867 c39 -11 114 -23 168 -26 117 -7 280 -24 305 -31 29 -9 11 -20 -55 -35
-69 -15 -213 -15 -268 0 -29 7 -20 9 58 10 50 1 92 5 92 10 0 4 -62 10 -138
13 -113 5 -146 10 -184 28 -48 22 -81 50 -59 50 6 0 43 -9 81 -19z m-190 -18
c96 -42 164 -148 158 -245 l-3 -53 -28 44 c-35 53 -106 131 -119 131 -7 0 -7
-4 0 -12 5 -7 21 -44 35 -83 14 -38 37 -96 52 -129 14 -32 24 -60 22 -62 -2
-3 -17 2 -33 11 -38 19 -116 19 -183 -1 -29 -8 -51 -17 -49 -20 2 -2 20 1 39
6 63 19 150 15 196 -9 23 -11 47 -30 53 -41 10 -18 9 -19 -27 -3 -72 30 -199
-3 -237 -62 -10 -15 -20 -24 -23 -21 -3 2 5 19 17 36 l23 32 -41 41 c-46 48
-70 93 -102 191 -41 125 -23 221 48 261 36 21 143 14 202 -12z m1110 9 c73
-40 93 -140 51 -263 -22 -68 -82 -163 -113 -183 -13 -8 -33 -2 -89 27 -39 21
-73 36 -75 34 -2 -2 21 -28 51 -57 65 -65 71 -84 13 -41 -49 36 -63 34 -22 -4
l29 -26 -45 22 c-34 17 -63 22 -117 22 -40 0 -73 1 -73 3 0 15 45 99 73 136
20 26 48 71 63 100 15 29 35 65 46 81 15 21 16 27 5 27 -26 0 -56 -33 -92
-100 l-35 -65 0 53 c0 63 -14 66 -45 9 -39 -71 -43 -29 -5 59 32 75 104 140
189 170 54 20 150 17 191 -4z m-975 -563 c49 -44 49 -83 -1 -99 -43 -14 -146
-8 -186 10 -20 10 -28 21 -28 40 0 53 40 79 122 80 50 0 62 -4 93 -31z m785 6
c12 -11 27 -31 32 -45 7 -20 5 -28 -11 -41 -45 -36 -187 -32 -226 7 -21 22
-19 60 6 85 19 19 30 21 99 17 60 -2 83 -8 100 -23z"/>
<path d="M3214 2296 c-35 -16 -62 -45 -28 -32 40 17 100 18 137 3 33 -14 37
-14 37 -1 0 17 -58 44 -92 44 -13 -1 -37 -7 -54 -14z"/>
<path d="M3566 2287 c-18 -13 -14 -15 42 -19 43 -3 71 -11 92 -26 36 -27 39
-14 7 24 -28 33 -110 45 -141 21z"/>
<path d="M3234 2191 c-46 -20 -34 -29 42 -33 42 -2 78 0 80 3 13 23 -84 46
-122 30z"/>
<path d="M3543 2183 c-27 -11 -10 -20 45 -26 32 -4 66 -9 75 -13 11 -4 17 -1
17 9 0 26 -96 47 -137 30z"/>
<path d="M3416 2071 c-8 -13 3 -18 62 -24 24 -3 52 -13 63 -23 16 -14 19 -15
19 -2 0 8 -9 23 -20 33 -23 21 -114 33 -124 16z"/>
<path d="M3305 1951 c-4 -7 -5 -14 -4 -15 2 -2 54 -8 114 -13 61 -6 116 -13
124 -14 23 -6 23 19 0 31 -32 18 -224 26 -234 11z"/>
</g>
</svg>