<?xml version="1.0" standalone="no"?>
<!DOCTYPE svg PUBLIC "-//W3C//DTD SVG 20010904//EN"
 "http://www.w3.org/TR/2001/REC-SVG-20010904/DTD/svg10.dtd">
<svg version="1.0" xmlns="http://www.w3.org/2000/svg"
 width="512.000000pt" height="512.000000pt" viewBox="0 0 512.000000 512.000000"
 preserveAspectRatio="xMidYMid meet">
<metadata>
Created by potrace 1.16, written by Peter Selinger 2001-2019
</metadata>
<g transform="translate(0.000000,512.000000) scale(0.100000,-0.100000)"
fill="#000000" stroke="none">
<path d="M1459 4181 c-70 -35 -136 -81 -168 -115 -30 -32 -37 -33 -45 -1 -13
52 -36 15 -51 -82 -6 -38 -10 -43 -33 -43 -34 0 -86 -31 -107 -64 -9 -14 -22
-57 -28 -96 -14 -92 0 -192 47 -334 28 -84 33 -112 26 -132 -15 -38 -12 -120
6 -162 28 -68 69 -100 182 -142 22 -9 43 -30 68 -71 39 -65 39 -89 -1 -115
-13 -9 -27 -29 -30 -46 -9 -40 -64 -99 -153 -165 -135 -101 -192 -201 -192
-341 0 -62 -7 -96 -36 -177 -54 -153 -94 -329 -101 -437 -6 -96 -5 -98 30
-172 58 -123 187 -297 292 -395 l37 -35 -8 -60 c-5 -34 -8 -124 -9 -201 0
-121 3 -149 22 -202 23 -63 44 -238 59 -485 l6 -108 28 0 c27 0 29 3 32 43 l3
42 30 -42 c17 -24 33 -43 36 -43 4 0 -8 44 -27 98 -35 106 -54 222 -35 222 6
0 43 -16 82 -36 39 -19 83 -39 97 -45 l27 -9 -25 21 c-14 11 -55 45 -92 75
-38 30 -68 59 -68 64 0 4 23 29 51 54 61 55 53 58 -24 12 -31 -19 -59 -30 -62
-26 -3 5 4 28 16 51 25 49 39 159 20 159 -6 0 -21 -16 -32 -35 -12 -19 -24
-33 -28 -30 -4 2 -15 22 -25 43 -22 48 -10 104 31 152 l26 31 -38 -7 -38 -7 7
34 c7 38 12 44 44 54 19 5 35 -6 100 -69 93 -92 135 -111 225 -103 92 8 132
23 177 67 23 22 46 40 51 40 6 0 20 11 33 24 19 21 37 26 130 36 59 7 110 10
112 7 3 -3 6 -20 6 -38 1 -28 -8 -41 -58 -87 -44 -40 -52 -51 -31 -43 49 19
82 39 105 64 21 22 23 34 21 84 -3 46 -1 57 11 55 8 -2 20 4 26 13 11 14 13
12 19 -15 4 -18 8 -87 10 -153 2 -73 10 -150 20 -190 11 -44 14 -80 10 -100
-4 -18 -6 -59 -5 -92 7 -127 5 -302 -4 -337 l-8 -38 35 0 c30 0 36 4 41 28 14
67 18 214 7 288 -10 67 -9 87 4 132 15 49 15 57 -4 125 -10 39 -22 122 -25
183 l-6 110 56 48 c46 40 64 66 101 145 43 92 45 101 54 226 9 129 26 265 34
274 3 2 5 0 5 -6 0 -35 43 -251 64 -324 14 -48 30 -114 35 -147 12 -78 29
-102 102 -148 32 -21 62 -47 66 -58 4 -12 6 -173 5 -358 -2 -297 5 -440 24
-500 4 -13 16 -18 38 -18 l34 0 -14 67 c-11 51 -14 156 -13 452 1 372 4 451
18 451 3 0 17 -9 29 -18 22 -17 23 -21 11 -60 -14 -50 -6 -64 63 -101 l43 -24
-39 41 c-36 38 -39 45 -30 69 6 16 16 27 25 24 8 -1 50 -9 93 -16 61 -10 83
-18 96 -35 15 -19 24 -22 59 -17 40 5 41 4 41 -24 0 -39 38 -76 86 -84 22 -4
51 -15 66 -26 70 -49 212 12 280 122 31 51 53 69 86 69 15 0 21 -9 24 -32 8
-51 0 -69 -28 -62 l-25 6 25 -46 c33 -61 41 -115 24 -156 l-14 -34 -24 39
c-13 21 -25 34 -27 29 -2 -6 5 -46 15 -90 l19 -79 -25 -50 c-13 -27 -44 -78
-68 -113 -24 -34 -38 -62 -31 -62 6 0 37 27 68 60 31 33 59 60 62 60 4 0 7
-29 7 -63 0 -72 -24 -153 -70 -234 -34 -60 -35 -63 -16 -63 8 0 29 24 47 52
l34 53 3 -53 3 -52 35 0 34 0 0 265 c0 241 2 270 21 324 17 51 18 66 9 102 -6
23 -9 62 -5 88 6 42 -8 201 -21 244 -4 14 7 30 42 60 91 78 171 163 233 247
113 152 135 216 120 353 -13 112 -41 221 -94 359 -30 77 -45 133 -45 163 0 70
-27 174 -60 232 -33 58 -102 109 -317 237 -62 37 -117 75 -123 86 -8 15 -6 29
11 62 43 85 54 95 113 102 78 10 137 51 170 117 42 85 30 164 -32 216 l-25 22
22 101 c27 116 24 169 -14 263 -32 77 -63 118 -120 153 -34 22 -54 45 -80 96
-43 81 -61 97 -51 45 l7 -35 -68 34 c-209 105 -477 40 -620 -151 -78 -103 -88
-141 -88 -320 0 -144 -1 -151 -24 -174 -21 -21 -23 -30 -19 -90 3 -54 10 -77
40 -126 21 -35 39 -80 43 -108 13 -99 52 -156 147 -213 57 -35 60 -38 42 -52
-27 -20 -128 -65 -207 -91 -72 -24 -94 -45 -137 -131 -43 -84 -60 -151 -60
-229 0 -58 -7 -98 -30 -167 -17 -50 -44 -136 -59 -190 -28 -97 -29 -98 -35
-59 -13 83 -50 185 -121 335 -40 85 -85 191 -99 235 -44 133 -122 247 -195
284 -20 10 -81 31 -136 46 -55 15 -106 32 -112 37 -27 22 -12 46 52 88 72 47
105 81 137 144 26 50 30 167 10 321 -12 94 -5 265 11 282 3 3 20 1 36 -5 23
-8 31 -8 31 1 0 24 -82 243 -105 284 -33 55 -138 159 -186 183 -41 22 -64 26
-54 10 3 -5 -18 1 -47 14 -74 32 -185 56 -264 56 l-67 0 27 21 c25 20 34 39
19 39 -5 0 -33 -13 -64 -29z m277 -128 c114 -43 288 -158 323 -215 11 -18 6
-16 -23 10 -41 36 -73 44 -57 15 5 -10 32 -44 60 -76 28 -32 51 -60 51 -63 0
-2 -11 3 -25 12 -31 20 -32 6 -3 -32 21 -26 21 -27 3 -19 -22 9 -186 28 -192
22 -2 -3 20 -16 49 -30 49 -24 51 -26 23 -26 -16 0 -63 8 -102 18 -40 11 -73
15 -73 11 0 -4 35 -29 78 -55 67 -41 72 -46 42 -41 -19 3 -75 26 -124 51 -50
24 -92 42 -95 40 -2 -3 1 -16 7 -30 11 -24 0 -36 -14 -14 -7 12 -74 42 -116
53 -88 21 55 -110 151 -139 22 -7 23 -5 17 18 l-6 26 52 -16 c92 -27 143 -49
140 -61 -1 -8 13 -12 39 -12 22 0 50 -5 61 -11 22 -12 23 -4 3 45 -6 14 -4 17
11 14 31 -6 44 -47 44 -140 0 -49 7 -128 15 -177 17 -97 11 -150 -25 -221 -23
-45 -86 -101 -149 -132 -67 -33 -235 -33 -341 0 -80 26 -113 53 -180 147 -34
49 -37 50 -89 52 -66 2 -98 23 -128 83 -31 59 -31 123 -1 144 31 22 58 20 100
-9 20 -14 39 -25 42 -25 4 0 6 26 6 57 0 31 7 83 16 114 15 54 18 57 40 49 21
-9 24 -7 24 16 0 35 -17 63 -45 74 -13 5 -42 36 -65 69 -22 34 -43 61 -45 61
-6 0 10 -50 38 -115 14 -33 23 -62 21 -64 -10 -10 -125 115 -135 147 -6 18 -9
67 -7 107 3 72 3 73 -16 57 -10 -9 -28 -30 -38 -47 l-19 -30 7 35 c8 41 30 77
55 90 25 14 73 12 87 -2 6 -6 13 -10 15 -7 1 2 15 23 29 45 39 60 111 94 202
95 l71 1 -40 19 c-22 10 -56 19 -75 20 l-35 1 30 14 c52 25 213 13 311 -23z
m1809 -148 c40 -11 40 -11 -45 -18 -79 -6 -174 -30 -184 -45 -2 -4 53 -7 122
-7 97 0 134 -4 155 -16 28 -15 28 -15 -31 -11 -66 5 -137 -14 -187 -49 -18
-12 -22 -18 -10 -14 11 3 59 9 107 12 84 6 90 5 153 -26 56 -28 70 -40 96 -87
40 -70 49 -74 49 -22 l0 43 20 -25 c20 -25 20 -25 0 28 -11 28 -18 52 -15 52
16 0 66 -90 75 -137 14 -64 8 -77 -15 -36 -16 28 -16 28 -10 -26 6 -49 4 -56
-21 -82 -35 -36 -39 -36 -42 2 -3 34 -35 103 -53 115 -9 5 -10 -1 -5 -22 4
-16 9 -58 12 -94 l4 -65 -22 55 c-31 76 -37 33 -9 -60 15 -48 21 -96 21 -167
1 -90 2 -95 14 -68 19 44 81 95 115 95 42 0 76 -42 75 -93 -2 -86 -62 -157
-132 -157 -55 0 -90 -20 -120 -69 -59 -96 -111 -132 -227 -157 -104 -23 -177
-18 -263 18 -89 37 -148 86 -174 146 -27 61 -47 303 -38 462 7 122 19 171 53
215 15 20 16 19 26 -10 6 -16 23 -54 38 -82 l28 -53 7 38 c3 20 9 73 13 117
l7 80 -21 -19 c-21 -19 -21 -19 -21 0 0 10 4 36 9 57 11 47 -1 55 -55 33 -39
-16 -39 -16 23 43 68 65 130 94 248 116 73 14 162 10 230 -10z m-636 -745 c0
-28 -2 -31 -9 -15 -5 11 -9 36 -9 55 0 28 2 31 9 15 5 -11 9 -36 9 -55z
m-1298 -380 c143 -32 222 -64 227 -92 3 -16 -5 -18 -56 -18 -131 0 -382 90
-358 128 11 18 42 15 187 -18z m1979 -73 c0 -44 -198 -127 -301 -127 -38 0
-80 30 -43 30 11 1 37 8 59 17 74 29 260 92 273 92 6 1 12 -5 12 -12z m-2159
-17 c92 -37 312 -90 371 -90 64 0 158 19 158 32 0 5 -7 22 -15 38 -18 34 -15
36 25 15 16 -8 62 -22 102 -30 65 -13 77 -20 113 -58 46 -51 108 -170 125
-242 7 -28 43 -113 80 -190 141 -293 156 -358 122 -531 -27 -136 -39 -221 -48
-349 -5 -87 -12 -112 -46 -190 -41 -92 -71 -135 -95 -135 -18 0 -16 21 7 75
15 36 19 59 14 95 -5 41 -2 55 21 95 l28 47 -6 146 c-4 81 -15 201 -26 267
-10 66 -22 149 -26 185 -3 36 -15 103 -25 150 -10 47 -24 137 -30 200 -6 63
-17 138 -25 165 -14 48 -72 152 -80 143 -2 -2 7 -34 20 -71 14 -37 27 -93 31
-125 5 -52 4 -55 -10 -38 -14 17 -15 12 -9 -52 4 -49 2 -76 -6 -86 -16 -19
-132 -38 -179 -30 -20 3 -48 13 -60 21 -31 19 -33 15 -16 -25 9 -21 25 -38 48
-47 43 -18 73 -18 156 -1 36 8 68 11 72 7 10 -9 34 -138 43 -226 4 -38 13 -97
20 -130 18 -80 35 -242 37 -346 2 -72 -2 -92 -24 -137 -19 -40 -24 -63 -21
-95 4 -36 1 -46 -23 -71 -52 -51 -169 -96 -252 -96 -35 0 -48 5 -63 24 -43 55
-186 122 -300 141 -24 4 -55 13 -70 20 -57 30 -178 191 -199 264 -5 20 -10 56
-10 80 l0 44 89 -86 c48 -47 104 -93 122 -102 33 -17 32 -16 -17 36 -73 78
-205 281 -191 295 2 3 32 -13 66 -34 61 -40 189 -97 198 -88 3 2 -19 22 -49
44 -71 52 -161 150 -187 204 -20 42 -20 47 -6 94 8 27 25 65 37 86 13 20 36
58 52 84 45 72 46 196 2 233 -10 9 -11 2 -6 -35 8 -54 -3 -114 -28 -152 l-17
-26 -6 39 -5 40 -41 -86 c-23 -47 -55 -124 -72 -171 -59 -168 -125 -273 -168
-265 -12 2 -23 1 -23 -4 0 -4 22 -34 48 -66 26 -32 65 -89 86 -128 75 -138
235 -339 295 -370 15 -7 60 -16 101 -20 132 -11 174 -23 230 -65 51 -38 52
-39 27 -45 -19 -5 -37 1 -71 24 -80 55 -82 30 -4 -58 21 -24 38 -48 38 -52 0
-18 -21 -8 -51 23 l-30 33 5 -36 c8 -47 -1 -74 -20 -58 -18 15 -34 3 -34 -28
0 -22 -2 -24 -15 -13 -13 11 -21 9 -45 -8 -16 -12 -41 -22 -55 -22 -57 0 -149
72 -178 139 -6 14 -85 103 -177 196 -163 168 -275 309 -326 413 -25 49 -26 60
-21 140 9 123 87 422 111 422 2 0 23 -7 46 -15 59 -21 63 -19 30 14 -93 92
-69 335 41 408 32 21 47 25 83 21 49 -6 117 -37 155 -71 l24 -22 -19 33 c-22
39 -83 87 -131 103 l-34 11 73 72 c40 40 76 74 80 75 4 0 30 -8 59 -19z m2479
-181 c12 -8 12 -11 2 -16 -7 -3 -32 -19 -55 -37 -56 -43 -98 -113 -104 -173
l-4 -48 23 52 c50 114 114 173 187 173 84 0 149 -163 127 -314 -5 -30 -20 -62
-42 -92 -29 -38 -31 -43 -12 -33 13 6 35 20 50 30 14 11 28 19 31 19 9 0 47
-100 77 -206 20 -71 33 -143 37 -205 5 -89 4 -101 -20 -152 -47 -103 -119
-190 -314 -382 -127 -125 -193 -197 -193 -211 0 -26 -51 -107 -81 -128 -13 -9
-32 -16 -42 -16 -16 0 -17 2 -7 15 24 28 -3 37 -45 15 -42 -22 -54 -15 -35 20
15 29 5 37 -19 16 -15 -14 -24 -15 -40 -6 -26 13 -27 36 -4 49 10 5 15 13 11
16 -4 4 -17 0 -29 -9 -34 -23 -54 -4 -34 33 7 15 21 33 29 40 19 16 21 41 4
41 -7 -1 -29 -14 -48 -30 -37 -32 -80 -40 -80 -15 0 34 128 106 235 131 69 17
71 18 180 128 86 87 124 135 172 217 42 72 82 124 122 162 61 56 65 67 26 67
-58 0 -108 83 -151 247 -29 113 -83 273 -96 288 -6 6 -8 -12 -6 -48 1 -31 0
-57 -4 -57 -3 0 -18 25 -33 55 -14 30 -28 55 -32 55 -13 0 10 -110 41 -190 47
-121 52 -159 28 -214 -30 -67 -96 -159 -170 -238 -55 -58 -61 -68 -35 -55 36
19 138 102 196 160 21 21 41 37 43 34 2 -2 -5 -30 -17 -63 -16 -47 -19 -72
-14 -125 8 -76 2 -90 -78 -207 -62 -90 -97 -120 -148 -128 -22 -4 -68 -25
-102 -47 -34 -22 -95 -57 -135 -78 -67 -36 -80 -39 -151 -39 -133 0 -196 35
-242 134 -53 115 -62 171 -55 360 6 148 26 393 42 492 l5 32 46 -14 c67 -20
70 -18 21 19 -67 51 -73 71 -72 235 0 78 -3 136 -7 129 -18 -31 -49 -166 -49
-212 l-1 -50 -25 30 -25 30 7 -40 c4 -22 11 -50 15 -63 19 -49 2 -279 -22
-308 -5 -7 -28 -15 -50 -19 l-40 -7 35 -43 c20 -24 40 -55 46 -70 5 -14 10
-104 10 -200 l0 -173 -42 -25 c-54 -33 -59 -28 -89 97 -18 72 -23 120 -23 236
-1 144 -1 146 41 270 91 276 93 283 93 374 0 72 5 99 30 165 39 100 78 144
150 167 30 9 76 27 102 40 58 29 68 30 68 3 0 -80 122 -111 281 -70 91 23 172
59 228 99 l42 31 112 -70 c62 -38 119 -74 127 -80z m-2648 -891 c19 -67 13
-79 -18 -34 -17 25 -23 43 -18 61 9 38 20 30 36 -27z m2627 -34 l-24 -45 -3
29 c-2 17 4 47 13 68 17 38 17 39 28 16 9 -19 6 -32 -14 -68z m-1064 -420 c9
-22 12 -42 6 -51 -9 -17 -4 -51 12 -70 12 -16 2 -17 -25 -2 -30 16 -33 4 -7
-37 l23 -37 -33 19 c-49 28 -81 71 -81 107 0 42 33 94 62 100 13 2 24 5 25 6
2 0 10 -15 18 -35z"/>
<path d="M1547 3500 c-35 -11 -51 -24 -80 -64 l-22 -31 30 22 c40 28 110 46
152 38 18 -3 33 -2 33 3 0 27 -67 46 -113 32z"/>
<path d="M1920 3390 c-37 -37 -18 -137 22 -114 34 19 48 38 36 45 -10 7 -10
11 0 21 9 9 12 9 12 -2 0 -10 3 -11 11 -3 8 8 7 17 -2 34 -23 44 -48 50 -79
19z"/>
<path d="M1537 3356 c-35 -32 -42 -67 -23 -105 25 -48 86 -32 86 22 0 14 5 29
10 32 16 10 24 -23 10 -40 -11 -13 -10 -14 4 -9 22 8 38 48 29 71 -20 56 -73
69 -116 29z"/>
<path d="M1170 3245 c-13 -15 -6 -65 9 -65 4 0 12 9 17 20 9 20 10 20 47 -6
21 -14 41 -24 44 -21 8 9 -15 44 -43 66 -31 25 -57 27 -74 6z"/>
<path d="M1805 3189 c-11 -17 2 -22 39 -15 50 10 55 26 7 26 -22 0 -43 -5 -46
-11z"/>
<path d="M1935 3074 c-55 -32 -108 -38 -185 -20 -36 8 -69 11 -73 7 -11 -11
101 -41 154 -41 49 0 143 40 153 65 7 20 -1 18 -49 -11z"/>
<path d="M3375 3661 c-51 -13 -94 -40 -109 -69 -19 -37 -28 -114 -18 -142 l9
-24 10 30 c15 43 60 92 107 116 32 17 58 22 119 22 42 0 77 3 77 7 0 14 -54
46 -95 58 -44 12 -56 12 -100 2z"/>
<path d="M3055 3386 c-17 -7 -36 -24 -42 -38 l-11 -25 36 19 c23 12 51 18 75
16 46 -4 50 16 6 31 -18 6 -32 11 -33 11 -1 -1 -15 -7 -31 -14z"/>
<path d="M3433 3370 c-13 -5 -23 -11 -23 -14 0 -2 24 -9 53 -16 30 -6 68 -23
90 -41 20 -16 37 -27 37 -23 0 19 -56 78 -86 90 -38 16 -41 16 -71 4z"/>
<path d="M3060 3253 c-16 -20 -20 -36 -16 -57 10 -50 60 -64 76 -22 12 33 30
42 30 17 0 -25 15 -28 24 -5 11 28 6 44 -19 69 -32 33 -68 32 -95 -2z"/>
<path d="M3401 3224 c-24 -30 -24 -34 -12 -67 19 -49 91 -42 91 8 0 28 12 32
30 10 17 -21 30 -19 30 5 0 12 -11 32 -25 45 -34 35 -86 34 -114 -1z"/>
<path d="M3798 3153 c-14 -16 -23 -44 -19 -65 0 -3 14 7 30 23 33 32 49 36 57
14 10 -25 26 -17 22 13 -3 23 -8 27 -39 30 -24 2 -40 -3 -51 -15z"/>
<path d="M3217 3073 c-16 -15 -4 -23 34 -23 36 0 40 2 29 15 -13 15 -51 20
-63 8z"/>
<path d="M3092 2979 c12 -36 92 -68 171 -69 45 0 127 19 127 30 0 4 -46 7
-102 7 -102 -1 -107 0 -192 41 -5 3 -7 -1 -4 -9z"/>
<path d="M1760 2065 c-47 -48 -47 -54 0 -30 28 14 70 75 52 75 -4 0 -28 -20
-52 -45z"/>
<path d="M2185 1260 c-42 -43 -152 -104 -254 -141 -35 -13 -60 -24 -54 -26 20
-7 212 36 251 56 45 23 89 71 98 106 11 44 -1 46 -41 5z"/>
<path d="M3170 2117 c0 -97 83 -141 267 -142 88 0 105 3 130 21 19 14 29 32
31 55 l4 34 -27 -29 -26 -28 -112 4 c-137 5 -190 25 -236 89 l-31 42 0 -46z"/>
<path d="M2880 1304 c0 -6 15 -34 33 -64 38 -65 110 -107 197 -116 l55 -6 -83
41 c-53 26 -105 62 -143 98 -32 31 -59 52 -59 47z"/>
<path d="M3059 536 c23 -36 41 -69 41 -71 0 -3 -13 1 -29 10 -40 20 -131 56
-131 51 0 -3 35 -29 78 -59 42 -30 84 -62 92 -72 14 -16 12 -17 -28 -10 -23 4
-42 4 -42 1 0 -3 28 -24 63 -47 70 -47 107 -78 107 -91 0 -12 -48 -9 -119 7
-35 9 -66 13 -68 11 -3 -2 35 -26 82 -53 86 -47 145 -100 145 -128 0 -8 -14
-30 -31 -50 l-31 -35 96 0 c95 0 96 0 92 23 -3 12 -12 56 -20 97 -8 41 -29
119 -45 174 -40 127 -40 140 -1 134 51 -8 33 9 -40 37 -39 15 -105 49 -147 77
-42 28 -83 52 -91 55 -7 3 5 -24 27 -61z"/>
<path d="M2055 534 c-55 -30 -117 -59 -137 -64 -33 -9 -38 -15 -38 -41 0 -27
-22 -169 -54 -357 l-13 -72 64 0 64 0 -15 22 c-18 26 -21 71 -6 99 6 10 60 44
120 74 59 30 112 60 116 66 5 9 2 10 -12 5 -35 -15 -159 -29 -187 -22 -20 5
-27 13 -27 31 0 20 6 25 33 29 17 3 66 10 107 17 90 14 123 28 65 29 -55 0
-115 18 -115 34 0 18 29 41 69 55 19 6 54 23 78 37 46 27 59 50 21 38 -35 -11
-91 -23 -108 -24 -8 0 8 20 35 44 28 24 48 46 45 49 -3 2 -50 -20 -105 -49z"/>
<path d="M1515 570 c43 -11 265 -11 240 0 -11 5 -76 8 -145 8 -78 0 -114 -3
-95 -8z"/>
</g>
</svg>